<svg width="544" height="550" viewBox="0 0 544 550" fill="none" xmlns="http://www.w3.org/2000/svg">
<path fill-rule="evenodd" clip-rule="evenodd" d="M148.856 303.69C149.955 311.232 152.782 317.83 155.139 324.821C156.368 328.196 157.892 331.455 159.694 334.562C160.793 336.526 162.207 341.239 164.249 338.49C164.563 339.904 164.17 340.611 164.641 341.946C165.27 343.831 168.725 346.11 170.218 347.602C171.631 349.016 173.28 350.037 174.773 351.294C175.087 351.53 175.715 351.373 175.951 351.608C176.422 352.158 175.951 352.865 176.186 353.101C178.621 356.165 182.862 358.364 186.003 360.564C190.558 363.784 195.035 367.005 199.433 370.383C202.889 373.054 206.266 375.882 209.721 378.552C211.318 379.744 212.722 381.175 213.884 382.794C215.376 384.837 215.612 384.915 214.591 387.115C212.706 390.964 209.25 393.399 206.973 396.777C204.381 400.705 202.653 405.025 199.119 408.324C197.548 404.79 195.506 409.974 198.098 409.424C196.841 413.038 194.171 416.101 192.286 419.558C190.156 423.515 187.795 427.345 185.218 431.027C184.982 430.084 184.668 429.141 184.433 428.199C181.919 428.827 183.961 430.634 184.119 431.341C184.276 431.969 184.825 432.048 184.433 433.462C183.953 434.514 183.288 435.472 182.469 436.29C181.056 438.254 179.72 440.217 178.385 442.26C177.05 444.224 176.579 445.873 175.715 447.759C174.93 449.487 174.223 449.173 173.045 450.43C171.788 451.765 170.532 454.043 169.354 455.536C165.929 460.105 163.006 465.03 160.636 470.225C158.437 475.095 154.353 478.473 152.547 483.658C151.604 486.329 151.29 489.078 150.426 491.749C149.641 494.263 148.384 496.541 147.913 499.133C147.521 501.254 147.756 503.768 147.599 505.653C147.442 507.224 146.814 509.581 146.971 511.702C147.363 516.258 149.248 520.186 151.526 524.035C141.238 527.491 129.536 528.512 118.698 528.277C113.2 528.12 106.917 528.12 101.498 529.376C98.3567 530.083 96.0006 531.026 92.7021 530.79C89.4035 530.555 86.1835 530.24 82.885 529.926C83.8275 527.962 86.9689 525.606 88.6967 524.113C89.7177 523.249 91.3669 523.092 92.1523 522.228C93.0162 521.285 93.3304 518.929 93.6445 517.829C96.0205 509.138 97.9342 500.328 99.3777 491.435C102.048 475.645 103.069 459.62 104.09 443.752C104.168 442.574 104.718 441.239 104.718 440.139C104.64 438.411 104.325 437.39 104.483 435.74C104.561 434.719 105.818 433.305 105.739 432.362C105.661 431.577 104.325 432.126 104.325 430.948C104.325 429.141 106.839 426.628 107.388 425.056C107.624 424.428 106.839 423.643 106.76 422.936V422.778C106.76 422.778 107.388 420.265 107.388 420.186C107.545 419.401 108.331 419.165 108.252 418.144C108.252 417.28 106.917 416.18 107.624 415.237C108.095 414.609 109.823 415.63 110.216 414.923C110.687 414.059 108.566 410.917 108.802 409.581C109.195 407.303 110.844 405.025 111.394 402.669C111.629 401.647 111.394 399.998 112.179 399.134C113.514 397.72 114.614 399.134 116.499 398.662C114.535 397.013 114.221 395.599 114.771 393.164C115.242 391.278 116.106 389.236 118.148 391.121C117.834 388.293 117.834 387.9 119.954 385.779C120.975 384.758 122.075 383.03 123.253 382.323C123.645 381.93 123.96 381.538 124.352 381.145C124.817 381.659 125.466 381.97 126.159 382.009C131.97 381.695 134.955 380.516 140.295 383.973C142.573 385.465 144.85 386.565 146.735 388.45C148.934 390.571 150.662 393.164 153.018 395.127C155.61 397.405 158.201 399.212 160.479 401.804C162.364 403.925 164.249 406.361 166.84 407.618C167.076 404.554 165.348 401.804 163.856 399.134C163.44 398.702 162.964 398.331 162.442 398.034C162.285 397.484 162.914 397.013 162.678 396.541C164.877 398.584 167.233 401.569 169.746 403.061C173.909 405.496 172.024 400.705 171.239 398.27C168.804 391.138 165.047 384.528 160.165 378.788C151.84 368.812 138.018 357.736 124.745 364.02C111.629 370.226 104.718 380.673 100.948 394.499C96.5504 410.603 94.5869 425.999 94.1157 442.653C93.8801 452.158 92.9377 461.663 91.9167 471.168C90.9743 480.437 90.503 490.492 88.6967 499.526C87.5923 498.037 86.7673 496.36 86.2621 494.577C86.0265 493.791 86.3406 493.006 85.9479 492.299C85.7909 491.985 84.8484 491.985 84.6128 491.67C83.1206 489.078 81.0787 485.465 80.4504 482.401C80.1362 480.83 80.4504 479.887 79.7436 478.395C79.1153 477.059 78.8011 478.316 78.5655 476.667C78.5655 476.431 79.5865 476.038 79.2723 474.938C78.4084 472.189 77.8587 474.781 77.466 474.781C76.6021 474.781 78.487 469.125 78.3299 468.261C78.1728 467.24 77.7016 467.79 77.466 467.083C77.1926 466.236 76.9826 465.369 76.8377 464.491C76.3665 461.663 75.267 460.72 75.267 457.656C75.1884 453.964 73.8533 451.608 73.225 448.073C73.1465 447.444 73.8533 446.659 73.6962 446.109C73.4606 444.931 72.5967 443.909 72.2041 442.653C71.4972 440.06 72.9109 437.782 72.6753 435.269C72.6753 435.661 71.8899 433.383 71.8114 433.226C71.4972 432.048 71.6543 430.555 71.4187 429.298C71.1831 428.12 70.4763 426.549 71.1045 425.449C71.5758 424.664 72.5182 424.899 73.1465 424.035C71.026 423.328 71.4972 424.114 70.7119 421.757C70.005 419.479 69.9265 417.594 72.3611 419.086C71.7328 417.594 70.6333 415.709 70.3192 414.059C70.0836 412.566 70.6333 411.152 70.4763 409.66C70.0836 405.732 68.827 403.297 71.1045 399.448C68.1202 397.955 69.4553 392.692 68.9841 389.786C68.5128 386.644 67.2563 383.658 69.6124 381.616C66.628 379.495 68.1202 372.582 68.1987 369.283C68.2772 366.141 68.0416 362.92 68.0416 359.228C68.0416 357.186 67.4919 355.693 67.0206 353.651C66.3924 350.98 67.0206 349.016 66.785 346.424C66.628 344.381 65.8426 342.339 65.7641 340.218C65.8046 337.937 65.726 335.656 65.5285 333.384C65.2928 331.577 64.8216 330.32 64.8216 328.356C64.6913 327.657 64.6386 326.946 64.6646 326.235C64.6646 326.235 65.4499 324.35 65.4499 325.214C65.4499 322.151 63.9577 319.166 64.7431 315.395C65.3714 312.331 65.9211 312.803 69.0626 313.038C71.4972 313.195 73.9319 313.352 76.3665 313.352C79.5079 313.352 89.7177 311.153 91.9952 313.431C93.8801 315.316 92.7806 324.036 92.9377 326.707C93.1733 331.027 89.0109 332.363 87.9113 336.762C85.7123 345.167 89.325 356.243 99.1421 356.95C108.331 357.657 117.127 350.116 115.87 340.846C115.399 337.154 113.671 333.07 110.451 330.87C107.31 328.749 100.713 330.32 98.5138 327.806C97.4928 326.628 97.8855 321.993 97.8069 320.501C97.6499 318.223 96.6289 313.745 98.1211 312.724C99.7703 311.546 104.954 311.467 106.839 311.467C109.465 311.545 112.094 311.387 114.692 310.996C120.661 309.975 126.551 310.053 132.363 308.718C138.096 307.382 143.437 306.047 148.856 303.69ZM219.617 303.69C220.795 303.69 223.387 313.667 224.094 315.395C225.978 320.187 226.764 325.057 227.785 330.163C228.884 335.348 229.827 340.611 231.162 345.795C232.183 349.645 231.947 353.337 233.361 357.264C232.968 359.699 233.361 363.784 230.691 364.805C228.335 365.748 226.764 363.47 225.821 361.506C223.387 356.165 224.172 349.095 223.308 343.36C222.287 336.605 222.209 329.927 221.423 323.172C220.717 317.123 218.36 309.582 219.617 303.69ZM115.085 166.928C117.677 169.913 121.603 168.656 125.059 168.342C123.567 171.641 121.525 175.254 121.446 178.946C121.368 180.91 122.467 182.638 122.467 184.445C122.467 186.252 120.975 187.98 120.268 189.708C117.127 197.328 116.342 207.697 116.184 215.867C115.949 232.835 121.054 250.902 131.813 264.178C134.077 267.005 136.66 269.562 139.51 271.797C141.081 272.976 148.227 275.882 148.541 277.532C149.17 280.831 141.866 280.517 139.824 280.753C135.583 281.381 131.421 282.245 127.18 282.795C110.216 285.073 93.4874 286.88 76.3665 285.937C74.4816 285.859 70.9475 286.801 69.1411 286.016C67.0206 285.152 67.7275 283.345 67.806 281.302C67.9631 275.961 67.1777 270.776 66.7065 265.513C66.3138 261.271 67.3348 261.821 70.4763 259.464C73.9603 256.65 76.5523 252.884 77.9372 248.624C80.9216 251.059 78.8011 252.395 79.1938 255.458C79.7436 259.229 82.2567 258.6 83.9845 256.087C86.5762 252.159 86.3406 245.874 83.906 241.947C81.707 238.412 73.8533 232.992 69.3767 234.641C63.4865 236.762 69.9265 243.989 72.6753 245.56C71.9684 247.524 68.1202 249.331 66.4709 250.431C64.1148 251.923 61.0519 252.866 58.3031 253.651C51.2118 255.831 43.7127 256.342 36.3914 255.144C29.1661 254.123 20.8412 251.766 16.2076 245.796C14.1656 243.204 12.3593 239.355 14.2442 236.134C15.972 233.227 20.2915 233.07 22.4119 230.242C23.3544 229.064 23.7471 227.414 24.611 226.236C25.9461 224.351 25.3963 224.665 27.988 224.901C32.1505 225.293 36.627 225.529 40.7109 224.508C43.7739 223.722 46.8368 222.308 49.8212 221.444C53.0521 220.371 56.022 218.631 58.5387 216.338C64.2719 211.311 69.848 205.89 75.1099 200.47C80.3718 195.05 83.7489 188.059 88.6967 182.324C94.2728 175.804 99.6133 167.477 107.86 163.943C112.65 161.822 112.572 164.021 115.085 166.928V166.928ZM135.033 188.53C135.819 189.394 135.347 194.107 136.054 195.678C138.96 201.57 144.065 200.235 149.327 198.978C149.798 203.691 150.112 208.954 151.997 213.353C152.861 215.317 154.196 216.967 154.824 219.009C155.217 220.266 155.06 221.915 155.531 223.172C156.081 224.508 157.416 225.45 158.201 226.786C159.144 228.357 159.615 229.771 160.872 231.106C163.62 234.091 167.312 236.605 169.354 240.14C170.141 241.406 170.474 242.902 170.296 244.382C170.296 245.01 169.825 247.21 170.06 247.681C170.767 249.331 173.28 249.724 173.516 251.845C173.673 253.023 173.045 252.866 172.809 253.887C172.574 255.065 172.731 255.929 172.26 257.265C171.553 259.386 168.49 263.392 168.804 265.199C164.327 267.713 156.395 269.284 151.29 268.105C146.107 266.927 140.923 261.114 137.625 257.265C129.771 248.231 125.216 234.013 124.823 222.23C124.588 216.26 125.373 210.211 125.687 204.241C125.844 200.863 125.138 191.358 127.965 189.001C128.829 188.294 134.405 187.902 135.033 188.53V188.53ZM92.8591 199.842C85.8694 200.235 79.9006 211.154 81.2357 217.516C82.2567 222.78 84.0631 218.695 85.3982 216.495C86.9689 213.824 89.8748 210.604 93.3304 211.311C97.1786 212.096 98.1211 216.731 99.6918 219.637C102.519 224.979 103.383 219.245 104.011 215.945C103.54 209.582 101.263 199.37 92.8591 199.842V199.842Z" fill="#34558B"/>
<path fill-rule="evenodd" clip-rule="evenodd" d="M512.48 525.55C508.896 526.767 505.382 528.183 501.956 529.792C497.951 531.442 495.202 531.756 490.882 531.756C474.076 531.756 457.505 532.62 440.698 532.934C436.143 533.013 431.43 533.091 426.875 533.013C424.99 533.013 423.184 532.777 421.378 532.62C420.2 532.541 415.016 533.248 414.309 532.856C412.346 531.677 413.524 524.136 413.288 521.701C412.844 517.527 411.84 513.431 410.304 509.525C404.964 495.385 396.089 481.638 384.78 471.505C400.016 465.142 416.666 456.658 433.551 460.429C439.991 461.843 448.551 463.806 451.85 470.012C455.384 476.689 458.525 483.995 462.531 490.358C467.086 497.506 471.877 503.555 478.395 508.897C480.987 511.017 494.024 523.979 492.061 513.924C491.432 510.703 489.076 507.718 487.191 505.126C486.249 503.791 481.144 499.391 481.929 497.899C482.793 496.171 492.061 494.914 494.103 494.364C498.186 493.264 502.27 492.007 506.354 490.829C504.862 493.578 496.851 504.105 501.956 506.854C503.841 507.875 508.71 504.34 510.752 503.712C514.286 502.691 517.506 503.319 520.962 504.419C520.883 506.147 517.506 506.147 516.407 507.325C514.758 509.054 513.658 513.61 514.915 515.652C517.271 519.423 526.459 515.574 530.543 516.988C525.91 521.701 518.684 523.586 512.48 525.55V525.55ZM283.468 369.149C283.546 369.227 283.468 369.384 282.839 369.856C282.682 369.227 282.368 369.149 281.976 369.306C282.29 368.992 282.525 368.834 282.839 369.856C283.091 369.661 283.304 369.421 283.468 369.149V369.149ZM284.881 367.106C284.852 367.269 284.763 367.414 284.633 367.516C284.502 367.617 284.339 367.667 284.175 367.656C284.175 367.578 284.175 367.499 284.253 367.499C284.489 366.714 284.881 366.871 284.724 365.378C284.804 365.475 284.86 365.59 284.887 365.713C284.915 365.836 284.913 365.963 284.881 366.085C284.996 366.231 285.058 366.41 285.058 366.596C285.058 366.781 284.996 366.961 284.881 367.106V367.106ZM244.121 435.684C244.514 434.741 244.592 433.642 245.142 432.778C244.592 433.642 244.592 434.741 244.121 435.684ZM401.744 532.227C395.696 531.991 389.728 532.07 383.68 532.384C370.722 532.934 357.685 533.013 344.726 534.112C338.483 534.623 332.217 534.78 325.956 534.584C320.38 534.427 314.804 534.584 309.306 534.112C303.259 533.563 297.526 531.913 291.4 531.834C285.51 531.756 278.52 531.049 272.865 531.913C271.844 532.07 271.373 532.698 270.195 532.856C268.624 533.091 266.347 532.384 264.698 532.306C261.792 532.149 258.65 532.463 255.823 531.756C254.935 531.511 254.069 531.196 253.231 530.813C252.175 530.506 251.099 530.27 250.011 530.106C252.681 529.085 246.713 527.043 246.241 526.964C246.084 527.357 246.399 527.907 246.791 528.457C245.299 527.278 246.87 527.75 244.435 526.571C243.09 526.092 241.693 525.775 240.273 525.629C239.516 525.547 238.752 525.547 237.995 525.629C238.136 525.499 238.243 525.337 238.309 525.157C239.173 523.429 236.581 521.465 235.168 522.643C235.397 523.183 235.659 523.708 235.953 524.215L235.875 524.136C235.325 523.508 234.382 521.937 233.361 520.915C234.618 520.208 233.047 519.266 232.498 518.323C232.105 518.559 231.634 518.716 231.477 519.03C231.791 518.323 232.655 517.695 232.105 516.359C231.901 515.846 231.578 515.388 231.162 515.024C231.354 515.226 231.586 515.387 231.843 515.495C232.099 515.603 232.376 515.657 232.655 515.652C232.05 514.891 231.62 514.006 231.398 513.06C231.241 512.274 232.262 511.567 231.241 510.86C231.241 510.153 231.712 506.776 229.906 507.954C231.084 504.419 233.047 500.727 234.54 497.271C237.995 489.179 241.529 481.01 245.063 472.919C251.032 459.643 257.158 446.367 263.991 433.406C270.745 420.602 278.127 408.19 284.567 395.15C290.693 382.581 297.918 370.563 304.123 358.073C307.029 352.181 310.955 347.311 311.976 340.476C312.291 338.277 312.369 333.642 309.071 334.428C306.872 334.978 303.809 340.476 302.395 342.205C301.138 340.476 293.992 330.264 292.107 336.313C290.457 341.498 300.746 343.776 296.662 349.039C296.269 349.589 294.541 350.06 293.992 350.531C292.892 351.474 291.95 353.124 291.086 354.223C289.201 356.816 287.63 359.565 285.902 362.157C285.588 362.629 284.332 363.807 284.253 364.357C284.175 364.671 284.489 364.985 284.646 365.3C283.232 366.556 281.426 367.656 281.112 369.699C281.19 369.777 281.269 369.777 281.426 369.699C280.091 371.113 278.441 374.412 278.206 374.805C276.399 377.397 274.672 380.146 272.944 382.817C272.001 384.31 270.352 386.038 269.802 387.687C269.645 388.237 270.195 389.259 269.645 389.808C268.31 391.222 266.975 390.908 265.954 393.736C265.561 394.836 265.483 396.407 264.855 397.35C263.834 398.921 262.341 399.628 261.399 401.277C259.593 404.42 257.394 407.876 256.216 411.018C256.137 410.782 256.137 410.468 256.059 410.233C255.43 411.411 254.723 412.589 254.095 413.767C254.881 413.701 255.612 413.335 256.137 412.746C256.111 412.936 256.058 413.121 255.98 413.296C255.415 413.572 254.801 413.732 254.174 413.767C253.702 414.474 253.31 415.26 252.917 415.967C252.456 417.435 252.089 418.93 251.818 420.445C251.8 419.991 251.72 419.542 251.582 419.109C250.718 420.68 249.933 422.33 249.069 423.901C250.561 422.723 250.482 422.566 251.896 422.487C250.09 422.487 247.341 425.079 247.105 427.514C247.027 427.907 247.341 428.379 247.498 428.771H247.341C245.456 428.614 246.006 429.007 245.299 430.578C246.155 430.286 246.973 429.89 247.734 429.4C247.773 429.486 247.793 429.58 247.793 429.675C247.793 429.77 247.773 429.863 247.734 429.95C247.262 430.657 243.414 430.185 245.927 431.835C243.885 430.5 242.864 434.977 243.571 436.47C243.021 437.255 242.393 437.962 241.765 438.748C240.386 440.34 239.272 442.143 238.466 444.089C236.817 447.86 234.775 451.552 232.969 455.166C232.277 456.504 231.49 457.79 230.613 459.015C229.121 461.293 229.356 460.743 230.534 463.257C230.063 463.099 229.435 463.492 228.806 463.964C228.865 463.797 228.958 463.645 229.08 463.517C229.201 463.389 229.348 463.289 229.512 463.222C229.675 463.155 229.85 463.124 230.027 463.13C230.203 463.136 230.376 463.179 230.534 463.257C229.042 460.114 227.707 463.964 227 465.77H227.079C227 465.927 226.922 466.006 226.843 466.163C226.136 467.656 225.272 468.52 225.901 470.091C226.058 469.227 226.764 468.598 227.079 467.813C226.686 469.619 224.722 471.74 224.094 472.997C223.623 474.019 223.544 475.04 222.916 476.139C222.342 477.039 221.843 477.985 221.424 478.967C219.303 484.545 218.282 490.829 216.947 496.721C215.5 503.786 214.633 510.959 214.356 518.166C214.277 520.208 214.199 522.094 214.984 524.058C215.062 524.372 216.241 525.864 216.241 526.414C216.083 529.321 210.664 528.692 208.544 528.614C205.245 528.457 202.968 529.006 199.748 529.478C196.764 529.87 193.936 529.635 190.952 530.42C186.004 531.599 178.543 533.563 173.752 530.892C171.396 529.635 168.49 525.943 166.841 523.822C164.799 521.23 164.092 518.637 163.7 515.417C163.071 509.839 162.993 503.712 164.956 498.37C173.909 473.626 189.381 451.159 202.654 428.693C215.141 407.562 229.121 387.53 241.608 366.478C248.205 355.323 256.137 344.326 264.069 334.035C272.08 323.509 277.813 312.118 283.546 300.178C289.437 303.32 295.641 306.462 302.238 307.876C306.008 308.662 309.699 308.426 313.469 308.662C316.217 308.819 318.574 309.526 321.401 309.605C333.81 309.919 348.103 308.426 359.962 304.734C362.73 303.912 365.434 302.888 368.051 301.671C371.429 300.021 372.371 299.393 372.528 303.163C372.921 310.469 374.099 317.539 374.649 324.766C375.198 331.835 376.612 338.748 377.869 345.74C378.497 349.274 379.204 352.809 379.675 356.344C380.068 359.015 381.246 362.786 380.774 365.457C380.225 368.442 377.476 371.427 375.827 373.94C374.177 376.533 372.528 379.047 370.957 381.639C367.99 386.438 364.738 391.055 361.219 395.464C354.543 403.634 348.81 412.275 342.527 420.759C335.773 429.793 330.197 439.455 323.6 448.567C320.144 453.359 316.532 457.915 314.254 463.335C312.369 467.813 308.521 471.976 306.243 476.375C303.18 482.188 299.254 487.53 296.269 493.421C294.149 497.506 290.065 501.67 289.594 506.461C288.887 514.474 296.426 506.461 298.233 504.262C300.589 501.277 303.18 496.092 306.715 494.443C309.228 493.264 312.919 493.421 315.668 492.479C318.574 491.536 321.322 490.515 324.228 489.651C329.883 487.923 335.302 485.566 340.799 483.445C346.454 481.245 352.187 478.967 357.763 476.532C360.163 475.456 362.7 474.715 365.303 474.333C366.481 474.097 370.722 472.133 371.664 472.29C373.235 472.605 375.434 477.161 376.612 478.418C378.418 480.224 380.539 481.717 382.267 483.681C385.801 487.569 389.105 491.661 392.162 495.935C398.681 505.362 404.807 515.652 407.163 527.043C407.948 532.07 406.691 532.384 401.744 532.227V532.227ZM231.477 519.894C231.447 519.863 231.424 519.826 231.411 519.785C231.397 519.744 231.393 519.701 231.398 519.658C231.398 519.737 231.477 519.816 231.477 519.894C232.262 519.423 232.419 519.658 232.576 520.051C232.421 519.934 232.239 519.859 232.047 519.831C231.854 519.804 231.658 519.825 231.477 519.894V519.894ZM229.67 514.631C229.67 514.474 229.592 514.395 229.592 514.238C229.655 514.359 229.683 514.495 229.67 514.631C229.822 514.498 230.018 514.424 230.22 514.424C230.422 514.424 230.618 514.498 230.77 514.631C230.61 514.516 230.417 514.454 230.22 514.454C230.023 514.454 229.831 514.516 229.67 514.631V514.631ZM230.456 511.175C230.691 511.175 230.927 511.018 231.241 510.703C231.005 510.939 230.77 511.253 230.534 511.489V511.41C230.613 511.332 230.534 511.253 230.456 511.175ZM153.254 482.345C151.527 486.509 150.741 491.065 149.249 495.307C148.199 498.512 147.566 501.838 147.364 505.205C148.385 505.99 148.385 506.618 147.286 507.247C147.22 507.978 147.194 508.712 147.207 509.446C147.005 511.516 147.246 513.605 147.914 515.574C148.748 518.571 150.018 521.429 151.684 524.058C141.395 527.514 129.693 528.535 118.934 528.299C113.122 528.142 106.604 528.142 100.871 529.556C94.7447 531.127 89.4042 530.42 83.1213 529.949C84.0637 528.064 87.5193 525 89.3257 523.743C90.2681 523.115 91.6817 522.958 92.3886 522.251C93.331 521.23 93.4881 519.187 93.8808 517.852C96.2568 509.161 98.1705 500.351 99.6139 491.458C102.284 475.747 103.541 459.643 104.326 443.775C104.405 442.44 105.111 440.947 105.033 439.69C104.954 438.041 104.483 437.491 104.64 435.841C104.719 434.741 106.054 433.249 105.975 432.306C105.897 431.678 104.405 432.228 104.483 431.049C104.64 429.243 106.996 426.807 107.546 425.158C107.782 424.451 106.918 423.665 106.918 422.88C106.918 423.115 107.546 420.366 107.546 420.287C107.703 419.502 108.489 419.188 108.41 418.245C108.41 417.381 107.075 416.281 107.782 415.339C108.489 414.396 109.902 415.81 110.373 415.024C110.845 414.16 108.724 411.018 108.96 409.683C109.352 407.247 111.08 404.655 111.709 402.141C111.944 401.199 111.551 400.099 112.337 399.235C113.672 397.821 114.771 399.235 116.656 398.764C114.771 397.193 114.379 395.621 114.929 393.265C115.4 391.38 116.264 389.337 118.306 391.222C118.07 388.709 117.756 388.473 119.484 386.431C121.083 384.502 122.873 382.739 124.824 381.167C127.573 379.125 131.971 378.104 135.191 377.868C138.725 377.633 143.123 379.518 145.793 382.189C149.092 385.488 153.254 387.845 157.024 390.987C160.951 394.286 164.406 398.292 168.176 401.827C168.962 402.534 170.375 404.577 171.632 404.262C173.595 403.713 172.025 400.727 171.553 399.471C168.49 390.201 162.993 380.775 155.375 374.49C151.448 371.191 147.6 367.106 143.045 364.671C139.353 362.707 136.526 363.021 132.599 362.943C129.222 362.864 128.594 362.629 125.609 364.043C123.486 365.007 121.415 366.082 119.405 367.263C116.089 369.162 113.115 371.605 110.609 374.49C104.326 382.346 101.891 392.322 99.4569 401.827C96.6209 412.157 94.987 422.78 94.5876 433.485C94.2734 444.561 93.7237 455.48 92.6242 466.556C92.0744 472.29 91.3676 478.025 90.6608 483.759C89.9539 489.022 89.9539 494.678 88.8544 499.863C87.5193 497.899 87.1266 496.406 86.3413 494.285C85.87 492.871 85.3203 492.95 84.6135 491.85C82.791 489.051 81.4381 485.973 80.6081 482.738C80.2154 481.088 80.6081 480.224 79.9013 478.732C79.6657 478.26 78.5662 478.653 78.3305 477.946C78.1735 477.396 78.8803 477.004 78.8803 476.846C78.8018 476.454 79.9013 475.982 78.9588 474.725C77.6237 472.919 78.252 475.197 77.5452 475.118C76.9169 475.118 78.8018 468.834 78.5662 467.891C78.4876 467.577 77.4667 467.498 77.3881 467.263C77.1525 466.399 77.1525 465.063 76.9169 464.042C76.2886 461.686 75.4247 460.664 75.3462 457.993C75.2676 454.38 73.9325 451.866 73.3042 448.41C73.1471 447.781 73.9325 446.996 73.7754 446.446C73.4613 445.268 72.6759 444.246 72.2832 442.99C71.655 440.633 72.5189 437.255 72.2832 435.37C72.1262 433.642 71.6549 430.971 71.3408 428.85C70.8696 425.394 71.7335 426.572 73.2257 424.372C71.1837 423.744 71.4193 424.294 70.7911 422.094C70.0057 419.502 70.0842 418.009 72.4403 419.423C71.812 417.931 70.7125 416.046 70.3984 414.396C70.1628 412.903 70.7125 411.489 70.5554 409.997C70.1628 405.912 68.8276 403.713 71.1837 399.785C68.1993 398.292 69.5345 393.029 69.0632 390.123C68.592 386.98 67.3354 384.074 69.6915 381.953C67.2569 380.225 68.1993 375.276 68.2779 372.605C68.2779 371.427 68.6706 369.306 68.592 368.206C68.5135 367.421 68.0423 366.949 67.8852 366.085C67.3354 362.864 68.5135 359.644 67.8067 356.423C67.1477 353.028 66.7538 349.588 66.6286 346.132C66.393 342.676 65.8433 339.062 65.6076 335.528C65.4506 332.935 64.4296 330.029 64.9008 327.358C64.9008 327.122 65.5291 325.237 65.6076 325.63C65.6076 324.923 65.0579 324.059 65.0579 323.666C64.8743 320.684 64.8481 317.695 64.9794 314.711V314.711C65.208 314.541 65.387 314.313 65.4975 314.05C65.608 313.788 65.646 313.5 65.6076 313.218C68.592 312.904 71.812 313.689 74.7964 313.768C78.0164 313.847 81.2364 313.689 84.3779 313.532C86.4198 313.454 90.8964 312.433 92.4671 314.161C93.5666 315.418 92.8598 321.859 92.9383 323.509C93.0169 325.473 94.0378 328.615 92.8598 330.343C92.153 331.443 90.5037 331.835 89.7183 333.014C89.2138 333.85 88.8179 334.748 88.5403 335.685C87.7355 338.032 87.3889 340.512 87.5193 342.99C88.0691 354.538 97.4149 359.879 107.782 355.245C116.892 351.16 119.327 338.905 111.551 331.993C109.745 330.343 107.782 329.95 105.426 329.557C103.933 329.322 99.8495 329.479 98.9071 328.379C97.9647 327.358 98.2003 324.059 98.0432 322.645C97.8861 320.445 97.0222 317.146 97.4934 315.025C96.7081 313.297 97.2578 312.511 99.0642 312.747C99.6139 312.668 100.242 312.511 100.792 312.433C102.284 312.197 103.698 311.883 105.19 311.726C107.86 311.569 110.452 311.883 113.044 311.49C115.635 311.176 118.227 310.469 120.819 310.155C123.568 309.762 126.316 310.233 129.065 309.762C134.72 308.819 140.846 307.484 146.186 305.284C147.6 304.656 150.034 302.928 151.605 303.242C153.49 303.556 153.019 304.813 153.568 306.62C156.553 316.596 162.836 326.494 169.511 334.428C175.794 341.89 184.041 347.939 191.502 354.223C196.057 357.994 200.376 362 204.617 366.164C207.68 369.149 210.979 373.941 214.905 375.669C215.769 375.669 219.303 375.276 219.932 375.983C220.639 376.768 220.639 377.161 220.324 377.633C221.188 375.433 217.183 375.826 214.905 375.747C215.141 376.14 217.654 381.246 218.283 378.418C218.631 378.657 218.999 378.867 219.382 379.047C217.541 383.081 215.305 386.922 212.706 390.515C210.9 393.108 208.465 394.993 206.816 397.664C204.696 401.042 202.968 404.577 200.376 407.562C195.114 413.61 192.208 421.623 187.575 428.3C185.376 431.521 184.198 434.506 181.92 437.648C180.114 440.162 177.208 443.304 176.187 446.21C175.794 447.389 176.187 448.331 175.48 449.431C175.009 450.138 173.595 450.845 172.888 451.552C170.218 454.301 168.098 458.308 165.977 461.528C163.7 464.985 162.207 468.598 160.244 472.212C158.202 475.747 154.982 478.339 153.254 482.345V482.345ZM83.514 498.135C82.1003 498.135 81.6291 498.135 81.472 497.585C81.3971 497.357 81.3704 497.116 81.3935 496.878C81.3704 497.116 81.3971 497.357 81.472 497.585C81.6291 498.213 82.1003 498.213 83.514 498.135ZM83.671 492.95C83.8281 493.343 82.9642 493.971 80.6081 493.736C82.9642 494.05 83.8281 493.343 83.671 492.95ZM78.0164 505.99C78.252 506.147 78.4091 506.383 78.6447 506.54C78.4163 506.379 78.2057 506.195 78.0164 505.99V505.99ZM63.6442 533.248C61.7594 532.62 56.8901 531.442 53.6701 530.028C55.0838 530.42 56.576 530.735 57.1257 530.97C59.3247 531.756 61.4452 532.541 63.6442 533.248C66.7072 522.172 78.1735 518.009 88.0691 513.924C83.3569 513.688 81.6291 509.604 78.8018 506.697C81.6291 509.604 83.3569 513.767 88.0691 513.924C78.1735 518.009 66.7072 522.251 63.6442 533.248ZM52.8847 522.172C52.8062 522.329 52.6491 522.565 52.5706 522.722C51.8156 524.212 51.1851 525.762 50.6857 527.357C50.6072 525.707 51.6282 523.743 52.8847 522.172V522.172ZM63.7228 312.59C63.8712 312.526 64.0329 312.499 64.194 312.511C63.6442 312.511 63.5657 313.14 63.4872 314.004C63.0159 313.454 62.9374 312.904 63.7228 312.59V312.59ZM99.3783 338.041C102.755 339.691 105.975 340.712 109.195 342.676C105.269 345.74 92.7813 350.61 93.0954 341.262C93.1739 340.162 93.8022 337.177 94.7447 336.549C96.3154 335.528 98.0432 337.413 99.3783 338.041V338.041ZM61.0525 294.208C75.8174 299.393 93.0169 298.057 108.017 295.543C124.117 292.873 140.217 291.223 155.846 286.196C155.846 288.395 156.788 290.673 155.061 292.401C153.726 293.815 150.82 294.051 149.013 294.679C144.38 296.25 140.374 298.45 135.427 299.393C129.929 300.414 124.51 300.414 119.012 301.042C117.049 301.278 115.164 301.592 113.279 301.985C110.831 302.004 108.397 302.375 106.054 303.085C96.7866 303.163 87.5978 303.399 78.3305 302.299C73.6184 301.749 68.9847 301.042 64.2725 300.571C59.8745 300.178 60.8955 298.293 61.0525 294.208V294.208ZM55.3979 254.617C46.6804 257.052 37.7272 256.266 29.1667 253.517C22.9624 251.553 14.7946 248.647 13.4594 241.105C12.5955 236.157 15.5799 235.214 19.0355 233.171C20.5054 232.368 21.7482 231.206 22.6482 229.794C23.355 228.772 23.9048 226.337 24.6902 225.63C26.4965 223.981 32.3082 225.395 35.1355 225.316C39.3765 225.159 42.2823 223.666 46.2091 222.41C53.1204 220.21 57.5184 217.461 62.8589 212.355C68.1208 207.406 74.2467 202.3 78.4876 196.487C83.1998 189.967 87.7549 183.525 92.9383 177.319C96.7866 172.685 103.698 163.415 110.53 163.415C113.986 163.415 113.436 166.715 116.185 168.364C118.698 169.857 121.918 168.836 124.667 168.6C122.861 172.685 120.348 176.927 121.211 181.561C121.683 184.154 121.997 185.096 120.976 187.532C119.942 189.678 119.101 191.913 118.463 194.209C116.073 203.887 115.277 213.889 116.107 223.824C117.756 240.477 123.41 257.602 135.898 269.385C138.718 272.011 141.89 274.232 145.322 275.983C148.778 277.712 149.092 279.597 144.772 280.383C136.369 281.875 127.887 282.975 119.484 284.075C111.08 285.174 102.52 286.353 93.9593 286.588C89.7183 286.667 85.5559 287.217 81.3935 286.903C79.273 286.745 77.231 286.353 75.1106 286.353C73.3042 286.274 70.5554 287.217 68.8276 286.51C66.1574 285.41 67.4925 277.555 67.2569 274.884C67.0213 271.742 65.0579 265.929 66.2359 263.022C67.0213 260.98 70.0842 260.116 71.655 258.466C74.2467 255.795 76.6027 252.731 77.6237 249.118C80.8437 251.71 78.0949 253.438 79.0374 256.581C80.1369 260.037 82.1003 258.937 83.671 256.581C86.2627 252.574 86.1057 246.447 83.5925 242.441C82.0369 240.189 79.927 238.376 77.4666 237.178C75.5032 236.157 71.2623 234.271 69.1418 235.135C63.3301 237.492 69.5345 244.405 72.4403 246.054C71.7335 248.097 66.7072 251.082 64.8223 251.946C62.0735 252.967 58.4608 253.753 55.3979 254.617V254.617ZM135.034 191.145C135.057 192.24 135.242 193.325 135.584 194.366C136.313 196.56 137.86 198.389 139.903 199.472C143.908 201.593 152.076 198.529 155.61 196.094C155.61 203.557 156.946 209.527 159.066 216.597C161.108 223.431 165.349 229.008 168.962 235.135C170.846 238.278 172.574 241.577 175.166 244.169C177.836 246.84 178.307 247.783 178.072 251.71C177.679 258.073 174.616 262.472 168.883 265.143C164.328 267.657 154.904 269.699 149.956 267.578C144.694 265.379 139.668 259.566 136.29 255.167C128.594 245.112 124.667 229.951 125.138 217.461C125.374 210.941 125.688 204.264 126.316 197.822C126.788 193.109 126.63 186.275 133.463 188.396C135.741 189.103 134.877 188.553 135.034 191.145V191.145ZM161.422 278.497C162.05 277.162 167.941 275.826 168.962 276.612C170.532 277.79 170.532 284.86 171.082 286.824C171.938 290.005 173.068 293.107 174.459 296.093C177.353 302.588 181.337 308.54 186.24 313.689C191.266 318.717 197.078 322.252 203.203 325.865C204.931 326.887 206.659 328.143 208.465 329.086C209.251 329.479 210.586 329.636 211.214 330.264C212.706 331.757 212 334.742 212 336.627C211.921 344.326 211.921 351.71 212.942 359.251C206.973 354.616 201.554 348.725 196.214 343.304C190.638 337.648 183.412 333.878 178.072 327.908C173.281 322.409 169.433 316.046 165.899 309.762C164.328 307.012 161.422 303.477 161.265 300.257C161.187 296.8 162.757 293.03 162.757 289.416C162.757 286.824 160.401 280.54 161.422 278.497ZM233.44 356.737C233.047 359.015 233.361 364.043 230.141 364.514C227.942 364.828 226.529 362.786 225.743 360.979C223.309 355.637 224.094 348.568 223.152 342.833C222.052 336.077 222.052 329.4 221.188 322.645C220.482 316.675 217.968 309.133 219.303 303.32C220.482 303.32 223.78 314.789 224.487 316.596C225.979 320.367 227.628 323.509 228.885 327.436C230.625 332.476 231.939 337.652 232.812 342.912C233.44 346.604 235.403 353.359 233.44 356.737V356.737ZM251.189 331.286C248.205 335.92 244.906 340.791 240.744 344.718C240.744 342.519 239.095 335.449 240.194 333.799C241.529 331.757 248.99 331.678 251.189 331.286V331.286ZM134.72 147.705C137.233 146.526 140.139 146.212 142.652 144.955C144.822 143.815 147.199 143.121 149.642 142.913C159.145 142.127 168.805 144.562 177.601 147.233C182.47 148.726 186.24 151.868 190.324 154.696C194.564 157.602 196.842 160.038 198.727 164.908C202.535 175.026 205.196 185.539 206.659 196.251C208.23 207.406 205.638 218.718 205.795 229.951C205.952 241.027 206.738 252.496 210.272 263.022C213.021 271.192 217.811 284.232 227.942 285.096C237.602 285.881 245.692 275.905 249.697 268.521C260.221 248.804 264.148 226.337 264.698 204.185C266.19 196.801 267.054 188.788 269.567 181.719C272.394 186.196 274.75 190.988 277.42 195.623C280.326 200.65 280.091 204.813 279.855 210.548C279.698 215.025 278.049 219.267 277.499 223.745C276.871 228.851 275.614 233.878 275.3 239.063C274.986 245.19 275.3 251.396 274.75 257.523C274.279 262.629 273.179 267.814 272.394 272.92C271.702 277.81 271.439 282.752 271.609 287.688C271.687 292.48 273.337 297.115 277.42 299.628C271.373 307.012 263.912 318.01 253.86 319.738C250.482 320.288 247.341 320.759 243.885 321.074C241.137 321.309 237.838 322.802 235.482 321.074C231.32 318.089 230.534 311.411 228.963 307.091C227.864 304.106 217.183 279.44 211.528 286.431C210.507 287.688 210.743 292.244 210.586 293.972C210.35 296.486 210.429 299.078 210.35 301.592C210.272 304.813 209.958 308.112 210.193 311.333C210.35 313.297 211.528 315.339 209.329 315.81C207.287 316.282 202.968 312.197 201.476 311.176C199.512 309.762 197.313 308.741 195.35 307.327C191.297 304.556 187.784 301.068 184.983 297.036C181.98 292.977 179.426 288.605 177.365 283.996C176.344 281.639 175.48 279.283 174.695 276.926C174.229 275.908 173.836 274.858 173.517 273.784C173.752 273.077 176.423 271.977 177.129 271.506C184.747 265.457 186.318 250.453 184.276 241.655C183.02 236.314 178.936 231.679 176.108 227.123C173.281 222.724 170.375 218.482 168.019 213.847C165.427 208.741 163.464 203.321 161.186 198.058C160.087 195.544 158.752 194.209 160.401 191.931C161.422 190.517 163.543 189.888 164.406 188.396C165.349 186.825 165.427 183.839 163.778 182.661C161.972 181.404 159.38 183.132 157.731 183.839C155.532 184.704 153.333 185.175 151.134 185.882C148.621 186.667 146.343 188.396 143.594 188.396C145.008 183.447 151.291 183.918 153.333 179.283C154.747 176.141 154.511 170.25 150.191 169.7C147.757 169.386 145.793 171.271 143.987 172.528C141.552 174.177 139.746 174.492 136.997 175.041C135.976 175.199 134.248 176.22 133.306 175.906C131.735 175.356 132.599 175.67 133.463 174.413C134.72 172.449 137.626 170.564 139.432 169.15C143.437 165.929 148.935 163.651 152.39 159.959C154.668 157.524 155.767 149.276 151.448 147.94C149.72 147.39 146.893 149.119 145.165 149.668C142.259 150.533 139.353 151.24 136.526 152.261C131.5 154.067 126.63 156.188 121.526 157.838C124.589 153.36 130.165 149.826 134.72 147.705V147.705ZM305.379 146.448C305.379 149.276 306.479 154.696 305.222 157.288C304.123 159.645 297.369 160.902 295.013 161.844C287.316 164.751 279.698 167.972 271.844 170.328C279.934 158.388 292.028 151.397 305.379 146.448V146.448ZM304.28 107.721C302.316 110.548 298.782 114.476 294.777 113.141C290.379 111.648 287.002 104.971 289.201 100.729C291.086 97.1157 296.583 94.8376 299.882 97.6656C300.589 98.294 301.06 99.8651 301.767 100.336C302.238 100.651 302.945 99.7865 303.495 100.179C305.144 101.201 305.772 103.557 308.128 103.4C309.228 103.321 312.683 100.494 313.39 99.708C315.275 97.7441 314.647 95.7803 314.961 93.188C315.354 89.6531 317.788 89.1032 320.615 87.2964C323.286 85.5682 325.406 82.976 327.998 81.3263C331.139 79.3625 329.333 81.8762 332.239 82.1119C332.789 82.1904 333.888 80.4622 334.831 80.4622C336.009 80.4622 336.48 81.2478 337.187 82.1119C338.6 83.9186 337.579 84.547 340.093 84.9398C341.899 85.254 342.998 83.9186 344.569 83.9186C345.826 82.5046 347.711 79.441 349.988 80.3837C351.559 81.0121 352.109 84.2328 352.423 85.5682C353.679 90.6743 353.601 96.6444 353.601 101.908C350.695 99.8651 350.302 98.4511 349.36 95.1519C348.732 93.0309 347.318 89.8102 345.747 93.1094C345.276 94.0521 345.669 95.4661 345.354 96.4087C345.04 97.587 344.176 98.1369 344.098 99.3938C343.784 102.457 346.297 103.557 348.496 105.05C346.454 107.249 340.564 105.6 342.134 110.313C343.784 115.262 350.145 112.512 353.287 111.255C355.957 121.467 344.019 126.416 336.715 129.244C332.396 130.894 330.747 131.837 330.197 136.786C329.715 141.098 330.28 145.464 331.846 149.511C332.437 151.31 333.146 153.068 333.967 154.774C334.674 156.031 336.166 156.11 336.637 156.817C338.443 159.409 337.108 165.065 336.951 168.129C336.401 176.613 333.731 184.389 332.553 192.716C332.003 196.958 330.197 200.964 329.49 205.128C328.783 208.977 328.548 212.59 325.249 215.34C318.731 220.838 313.704 212.669 311.427 207.327C308.207 199.707 307.893 189.652 308.442 181.483C308.992 172.606 313.076 164.122 313.312 155.324C313.547 145.898 312.134 136.943 309.777 127.83C308.756 123.824 307.264 120.289 306.008 116.44C304.83 113.376 306.557 110.548 304.28 107.721V107.721ZM321.165 14.5553C321.165 14.5553 321.087 14.4768 321.008 14.3982L321.165 14.5553ZM321.401 13.6912C321.309 13.0482 321.151 12.4164 320.93 11.8059C321.244 12.0416 321.715 12.1987 321.715 12.4343C321.726 12.874 321.617 13.3083 321.401 13.6912V13.6912ZM331.061 15.3408C330.982 15.3408 330.904 15.4194 330.825 15.4194C330.689 15.44 330.55 15.4122 330.433 15.3408H330.59C330.662 15.3796 330.743 15.3998 330.825 15.3998C330.907 15.3998 330.988 15.3796 331.061 15.3408V15.3408ZM336.166 13.6912C335.18 13.5938 334.185 13.7283 333.26 14.084L333.731 13.8483C334.528 13.6613 335.351 13.6082 336.166 13.6912V13.6912ZM284.803 262.551C284.96 258.309 284.96 257.052 288.337 254.303C291.164 252.024 293.835 249.589 296.662 247.39C302.866 242.362 309.542 237.099 316.689 233.407C320.694 231.286 331.532 227.123 328.783 235.371C326.192 243.148 321.165 250.061 316.924 256.973C312.526 264.043 308.128 271.113 303.573 278.026C301.61 281.011 299.489 283.996 297.604 287.06C295.719 290.123 295.562 292.087 291.714 290.909C288.965 289.966 285.824 288.866 283.154 287.688C280.876 286.667 280.955 286.038 280.955 283.289C282.368 276.141 284.489 269.778 284.803 262.551V262.551ZM302.631 177.319C301.688 181.247 294.698 181.719 291.007 182.426C290.379 182.583 287.08 183.604 286.531 183.211C285.353 182.504 285.902 180.462 285.431 179.44C282.604 173.942 282.604 180.933 281.818 182.583C279.619 187.06 276.321 178.026 275.064 175.827C274.122 174.099 273.101 173.235 274.122 171.821C274.907 170.642 279.462 169.778 280.876 169.307C285.981 167.422 291.007 165.536 296.034 163.651C298.233 162.866 304.908 158.545 304.83 162.63C303.966 167.422 303.809 172.606 302.631 177.319ZM298.861 223.824C296.74 224.452 290.929 227.123 288.808 225.866C287.002 224.845 288.258 221.074 288.416 219.189C288.742 215.453 288.795 211.699 288.573 207.956C288.258 202.535 287.787 202.143 293.128 200.65C295.17 200.1 301.453 197.037 303.023 198.765C303.73 199.55 303.416 202.143 303.573 203.085C303.908 205.188 304.488 207.244 305.301 209.212C306.679 212.575 308.444 215.765 310.563 218.718C306.889 220.899 302.959 222.615 298.861 223.824V223.824ZM286.766 185.646C287.709 184.311 292.264 184.154 293.756 183.839C296.426 183.29 299.096 182.74 301.767 182.111C301.924 185.411 303.73 193.894 301.374 196.251C300.039 197.586 295.641 197.901 293.756 198.372C291.714 198.843 289.672 199.393 287.63 199.865C287.395 196.722 287.237 193.58 286.845 190.438C286.845 189.338 286.059 186.746 286.766 185.646V185.646ZM287.316 228.772C288.73 227.123 292.578 227.201 294.698 226.73C298.054 225.93 301.338 224.852 304.516 223.509C306.322 222.724 309.856 220.21 311.819 220.838C312.369 220.996 313.547 223.274 313.94 223.745C316.54 225.908 319.604 227.44 322.893 228.223C308.678 234.036 297.29 244.405 285.51 253.988C284.646 253.281 285.117 247.076 285.196 245.583C285.353 242.912 285.51 240.241 285.667 237.57C285.745 235.292 285.824 230.501 287.316 228.772ZM330.433 285.489C330.04 287.924 329.961 291.223 328.862 293.501C327.919 295.543 327.998 295.386 325.485 295.465C322.265 295.543 318.574 296.093 315.511 295.072C318.259 288.945 320.615 282.346 324.385 276.769C325.563 275.041 327.841 270.563 330.354 270.799C332.867 271.035 332.317 273.548 332.082 275.355C331.768 278.733 331.061 282.111 330.433 285.489V285.489ZM342.92 190.045C344.805 176.848 344.648 163.965 344.648 150.69C347.711 151.082 351.088 150.847 354.072 151.711C353.13 154.774 350.381 157.524 353.051 160.43C355.8 163.337 362.24 164.672 366.01 165.772C370.408 167.029 374.884 168.6 379.361 169.307C381.427 169.738 383.551 169.818 385.644 169.543C388.864 168.914 389.178 168.05 391.298 171.428C391.298 171.449 391.307 171.469 391.321 171.483C391.336 171.498 391.356 171.506 391.377 171.506C390.714 171.317 390.019 171.264 389.335 171.349C389.413 171.585 389.492 171.899 389.57 172.135C388.96 171.703 388.264 171.408 387.529 171.271C385.408 170.878 382.738 171.821 380.696 172.292C376.12 173.272 371.609 174.532 367.188 176.063C363.496 177.398 359.805 178.812 356.192 180.54C353.444 181.876 347.082 184.232 346.218 187.453C344.569 193.737 361.14 198.451 365.146 200.572C368.994 202.535 367.737 205.52 367.816 209.527C367.894 213.847 368.287 218.168 367.973 222.41C367.737 225.787 367.502 225.238 364.125 225.159C361.612 225.08 359.098 225.002 356.664 225.159C353.104 225.295 349.584 225.957 346.218 227.123C341.271 229.008 331.768 238.12 341.271 240.948C345.197 242.127 350.145 241.655 354.151 241.42C357.606 241.184 363.025 239.613 366.402 240.791C368.13 240.32 368.758 240.948 368.287 242.677C368.366 243.855 368.444 245.112 368.523 246.29L368.994 253.596C369.308 258.544 369.622 263.493 370.015 268.521C367.109 264.436 363.104 256.266 356.978 257.209C351.637 257.995 348.574 266.243 346.847 270.485C345.537 273.97 344.461 277.539 343.627 281.168C342.763 284.624 342.37 289.495 340.721 292.637C339.072 295.701 336.873 294.679 333.495 294.994C329.333 295.386 330.982 293.03 331.689 289.495C332.71 284.075 336.244 274.805 332.789 269.778C328.391 263.336 322.186 275.276 320.537 278.419C318.99 281.434 317.601 284.528 316.375 287.688C315.589 289.73 314.961 294.13 312.919 295.229C310.484 296.565 306.557 294.444 304.28 293.658C301.61 292.794 298.704 292.48 296.034 291.93C303.809 279.754 311.898 267.814 319.437 255.481C323.207 249.354 327.919 242.912 330.04 235.921C330.546 234.648 330.787 233.284 330.747 231.915C330.59 230.736 328.783 228.851 328.94 227.987C329.097 226.73 331.611 225.709 332.71 224.452C336.715 219.974 337.736 214.633 338.993 208.898C340.328 202.85 341.977 196.33 342.92 190.045V190.045ZM358.077 152.339C363.968 151.082 370.722 154.46 375.67 157.21C378.968 159.016 387.607 162.787 388 167.265C387.921 166.086 379.91 166.793 378.34 166.872C371.586 165.379 364.36 163.415 358.077 160.509C355.8 159.409 353.051 158.388 353.915 155.639C354.386 153.832 356.428 152.732 358.077 152.339V152.339ZM351.245 239.613C347.475 239.377 333.967 239.534 340.799 232.779C345.04 228.537 352.972 227.594 358.627 227.594C360.649 227.605 362.668 227.736 364.674 227.987L366.324 228.223C368.052 227.908 368.523 228.615 367.894 230.344C368.209 231.365 368.68 237.413 367.816 238.278C366.638 239.377 362.868 238.906 361.454 238.984C357.999 239.142 354.622 239.613 351.245 239.613V239.613ZM371.036 290.909C361.219 292.401 351.402 294.208 341.428 294.365C342.92 287.06 344.648 279.833 347.396 272.92C349.124 268.521 352.266 258.937 358.313 259.409C363.182 259.801 368.837 268.05 370.172 272.291C371.9 277.869 371.036 285.174 371.036 290.909V290.909ZM396.325 180.383C396.168 181.404 391.691 183.211 390.749 183.761C383.825 187.782 377.999 193.448 373.785 200.257C373.313 197.665 373.392 192.795 371.271 190.988C367.502 187.767 368.287 194.994 367.816 197.194C367.423 199.236 367.894 198.922 366.167 199.079C364.596 199.236 360.591 196.251 359.098 195.544C355.093 193.502 351.245 191.224 347.318 188.867C350.538 183.604 359.962 181.169 365.381 179.048C373.156 175.984 380.774 174.413 388.942 173.156C390.277 173.863 390.513 172.292 391.534 171.899C391.564 171.868 391.586 171.831 391.6 171.79C391.613 171.75 391.618 171.706 391.612 171.664C392.79 173.549 396.639 178.891 396.325 180.383ZM406.377 251.789C410.226 269.306 411.168 287.531 415.959 304.813C420.514 321.231 424.598 337.648 429.86 353.831C432.923 363.179 435.75 372.605 439.834 381.56C442.661 387.845 444.939 401.199 451.85 404.105C456.405 405.991 458.368 404.341 457.897 399.706C457.504 395.7 455.384 393.186 453.735 389.73C453.106 388.552 451.222 385.174 451.379 383.838C451.614 382.267 452.007 382.424 453.735 381.639C457.189 380.033 460.793 378.77 464.494 377.868C463.002 380.225 459.939 383.524 459.704 386.431C459.468 388.787 461.196 393.108 463.552 394.05C465.751 394.914 468.343 393.108 470.306 392.008C472.505 390.751 474.625 390.358 476.982 389.494C473.919 393.972 468.892 397.507 471.013 403.555C473.29 410.075 480.437 404.734 485.071 404.027C483.736 409.054 478.002 414.867 473.84 417.617C470.999 419.515 468.034 421.221 464.965 422.723C463.787 423.351 462.295 423.665 461.196 424.372C460.803 424.608 460.096 425.786 459.704 425.943C454.52 428.457 447.452 429.086 441.797 430.264C435.892 431.536 429.84 431.985 423.812 431.599C418.55 431.364 412.66 428.064 408.262 425.393C404.885 423.351 404.414 420.759 403.393 417.145C401.665 411.097 400.094 404.969 398.445 398.842C397.031 393.579 396.325 388.552 395.382 383.21C393.34 371.898 392.398 360.429 390.199 349.117C388 337.884 387.293 326.572 386.665 315.103C386.35 309.605 385.487 303.949 385.172 298.529C384.937 294.129 385.015 289.73 385.015 285.174C385.015 281.954 383.916 278.811 383.994 275.591C384.191 272.845 384.191 270.088 383.994 267.343C383.366 261.294 382.895 255.245 382.345 249.197C381.403 237.335 378.654 225.63 377.554 213.847C377.083 208.741 382.659 203.871 386.508 200.886C390.591 197.744 393.811 193.266 398.288 190.752C399.859 211.333 401.979 231.679 406.377 251.789V251.789ZM339.229 470.876L326.034 476.768C322.814 478.182 318.574 481.167 315.039 480.931C317.553 477.475 319.123 473.626 321.872 470.248C324.542 466.949 326.741 463.414 329.176 459.879C332.396 463.728 335.694 467.341 339.229 470.876V470.876ZM340.171 453.673C346.847 450.138 356.271 443.539 364.046 444.796C369.622 445.739 375.984 449.824 379.361 454.301C380.931 456.422 382.502 458.386 384.387 460.507C386.036 462.392 386.9 462.157 385.487 464.121C384.387 465.613 381.717 466.713 379.989 467.263C379.989 463.885 381.01 460.586 377.005 460.9C375.434 461.057 373.549 461.371 371.978 461.686C370.643 461.921 369.858 462.471 368.68 462.785C367.423 463.099 365.931 462.707 364.674 462.864C362.475 463.021 360.669 463.885 358.627 464.356C354.501 465.348 350.436 466.581 346.454 468.048C344.491 465.063 342.92 461.528 340.25 459.172C337.344 456.422 336.087 455.872 340.171 453.673V453.673ZM283.232 11.8845C283.617 11.8181 283.983 11.672 284.308 11.4555C284.632 11.2391 284.908 10.957 285.117 10.6276C284.175 12.0416 283.703 12.0416 283.232 11.8845ZM263.284 14.1625C264.041 14.2775 264.78 14.4887 265.483 14.791C265.966 15.0481 266.414 15.3648 266.818 15.7336C266.641 15.6409 266.457 15.5621 266.268 15.498C265.309 14.9767 264.312 14.5302 263.284 14.1625V14.1625ZM250.011 123.903C249.933 123.824 249.933 123.746 249.854 123.667C249.887 123.757 249.941 123.837 250.011 123.903V123.903ZM247.42 124.295C247.164 124.212 246.943 124.046 246.791 123.824C246.943 124.046 247.164 124.212 247.42 124.295C247.594 124.365 247.782 124.392 247.969 124.374C247.782 124.392 247.594 124.365 247.42 124.295V124.295ZM246.399 122.174C246.382 122.439 246.408 122.704 246.477 122.96C246.404 122.705 246.377 122.439 246.399 122.174ZM249.54 123.353L249.383 123.196L249.54 123.353ZM248.99 122.881C248.904 122.799 248.794 122.744 248.676 122.724C248.794 122.744 248.904 122.798 248.99 122.881ZM359.412 17.069C359.533 17.1325 359.669 17.1598 359.805 17.1476C359.673 17.129 359.542 17.1028 359.412 17.069V17.069ZM362.868 19.3471C362.527 19.0133 362.26 18.6119 362.083 18.1688C362.114 18.1986 362.151 18.2212 362.192 18.2348C362.232 18.2483 362.276 18.2527 362.318 18.2474L362.711 17.8546C362.624 17.9792 362.57 18.1246 362.557 18.2762C362.543 18.4278 362.569 18.5803 362.632 18.7187C363.261 20.0541 364.046 18.0117 364.989 19.0329C364.203 19.0329 363.339 19.3471 362.868 19.3471C361.769 20.8396 360.669 22.4107 359.57 23.9032C361.062 24.6888 361.533 23.7461 362.397 25.0816C362.475 25.1601 362.475 25.3172 362.475 25.5529C362.161 24.5317 361.219 24.7673 359.57 23.9032C360.591 22.4107 361.769 20.8396 362.868 19.3471V19.3471ZM365.695 22.7249C365.792 22.6354 365.872 22.5289 365.931 22.4107C365.931 22.3322 366.01 22.1751 366.01 22.0965C366.01 22.2536 366.01 22.3322 365.931 22.4107C365.852 22.4893 365.852 22.6464 365.695 22.7249C365.664 22.7548 365.627 22.7774 365.587 22.791C365.546 22.8046 365.502 22.8088 365.46 22.8035C365.538 22.8035 365.617 22.7249 365.695 22.7249ZM364.36 25.1601C364.439 25.2387 364.439 25.3172 364.517 25.3958C364.517 25.3172 364.439 25.2387 364.36 25.1601ZM362.711 31.1302C361.14 30.2661 362.475 29.2449 362.554 27.9095V28.3023C362.475 30.109 361.14 30.6589 363.496 31.2088C363.653 31.2088 363.889 31.2873 364.125 31.2873C363.648 31.3271 363.168 31.2738 362.711 31.1302V31.1302ZM387.293 44.7987C387.214 44.0131 390.749 42.3635 391.141 42.2064C390.67 42.442 387.214 44.0917 387.293 44.7987ZM391.377 38.1215C391.332 38.0808 391.304 38.0248 391.298 37.9644C391.298 38.043 391.298 38.1215 391.377 38.1215ZM393.183 44.2488C393.221 44.0673 393.247 43.8837 393.262 43.6989C393.345 43.9804 393.398 44.2701 393.419 44.563C393.408 44.4954 393.381 44.4314 393.34 44.3767C393.299 44.3219 393.245 44.278 393.183 44.2488ZM390.513 44.1702C390.513 42.9134 390.906 43.149 391.141 43.2276C390.906 43.5418 390.513 43.6203 390.513 44.1702ZM386.743 46.9982C386.921 46.9786 387.1 47.0043 387.265 47.073C387.43 47.1417 387.575 47.2511 387.686 47.3909C387.136 47.2338 386.586 47.0767 386.743 46.9982ZM383.759 54.3037C383.68 54.3037 383.68 54.3037 383.602 54.3823C383.602 54.3037 383.68 54.3037 383.759 54.3037ZM383.994 54.2251C383.916 54.2251 383.916 54.2251 383.916 54.3037L383.994 54.2251ZM383.445 54.3823C383.402 54.3769 383.359 54.3812 383.318 54.3948C383.277 54.4084 383.24 54.4309 383.209 54.4608C383.24 54.4309 383.277 54.4084 383.318 54.3948C383.359 54.3812 383.402 54.3769 383.445 54.3823V54.3823ZM385.801 98.6082C386.028 98.3712 386.337 98.2305 386.665 98.2155C386.41 98.2982 386.184 98.4539 386.017 98.6633C385.849 98.8728 385.747 99.1267 385.722 99.3938C385.678 99.2648 385.663 99.128 385.676 98.9925C385.69 98.8569 385.732 98.7259 385.801 98.6082V98.6082ZM388.55 90.4386H388.471C387.686 90.36 387.371 90.9099 387.293 91.6169C387.286 91.3231 387.363 91.0335 387.517 90.7827C387.67 90.5319 387.892 90.3306 388.157 90.2029C388.157 90.1244 388.078 90.1244 388.078 90.0458C388.235 90.2029 388.392 90.2815 388.55 90.4386ZM387.607 94.5234C387.61 94.4134 387.583 94.3046 387.529 94.2092C387.597 94.5853 387.702 94.9537 387.843 95.309C387.764 95.0733 387.686 94.7591 387.607 94.5234V94.5234ZM388.314 81.7976C388.235 81.7976 388.157 81.8762 388.078 81.8762C388.121 81.8814 388.164 81.8771 388.205 81.8635C388.246 81.8499 388.283 81.8274 388.314 81.7976V81.7976ZM388.471 81.7191C388.392 81.7191 388.392 81.7976 388.314 81.7976C388.374 81.7896 388.429 81.762 388.471 81.7191ZM388.078 81.8762C388 81.8762 387.921 81.9548 387.764 81.9548C387.921 81.9548 388 81.9548 388.078 81.8762ZM542.795 530.892C540.675 529.006 533.528 528.849 530.779 528.299C536.905 522.486 541.46 507.718 529.837 505.754C527.245 505.362 526.538 506.304 525.91 503.398C525.517 501.591 526.302 499.941 525.36 498.135C523.24 493.893 515.229 494.364 511.223 493.736C512.166 490.358 514.522 484.388 510.988 481.638C508.161 479.517 502.427 482.345 499.443 483.288C491.432 485.802 483.264 488.63 476.51 493.657C473.447 489.572 470.306 485.566 467.793 481.088C465.358 476.846 463.866 472.212 461.588 467.891C459.311 463.571 456.876 458.543 453.656 454.773C450.986 451.631 447.216 451.316 443.682 449.824C434.65 446.053 426.797 446.21 417.372 447.624C407.948 449.038 399.78 454.537 391.77 459.407C388.628 448.803 381.403 437.334 370.093 434.034C365.067 432.542 359.727 433.956 355.093 436.313C349.36 439.14 344.883 444.011 339.307 446.76C345.669 435.841 353.758 425.551 360.748 415.26C364.596 409.604 369.465 404.577 373.235 398.764C377.083 392.872 379.91 386.352 382.659 379.911C385.015 385.881 385.408 392.165 387.529 398.214C389.492 403.713 390.827 409.368 393.105 414.789C395.461 420.445 397.503 426.022 400.723 431.285C402.529 434.27 407.006 443.618 410.304 437.648C417.608 442.597 424.676 445.582 433.865 445.346C438.027 445.268 442.74 445.111 446.745 444.168C450.829 443.225 454.677 441.968 458.761 441.026C461.981 440.319 464.887 438.355 467.793 436.862C471.17 435.213 474.468 432.228 477.06 429.557C480.28 426.336 483.579 423.194 486.799 419.973C490.019 416.753 489.783 413.532 491.432 409.526C493.239 405.362 493.945 401.67 491.589 397.507C489.862 394.443 486.799 394.836 486.092 391.772C485.385 388.787 486.092 386.038 484.207 383.367C482.793 381.325 477.767 379.911 477.767 377.868C477.767 376.14 479.573 374.569 479.495 372.527C479.323 370.261 478.653 368.061 477.531 366.085C475.646 363.1 472.819 363.021 469.599 363.964C461.824 366.164 454.206 371.741 448.865 377.633C441.562 357.523 435.75 337.02 430.409 316.517C428.053 307.484 426.168 298.293 424.676 289.023C423.184 279.833 420.907 270.642 419.886 261.451C419.257 255.952 417.608 250.768 416.823 245.347C416.194 240.87 415.723 236.314 415.095 231.757C413.681 221.781 411.639 211.883 410.147 201.907C409.283 196.408 407.398 191.538 405.906 186.275C404.649 181.719 403.864 177.791 401.744 173.549C397.66 165.301 393.497 155.246 385.644 150.061C378.654 145.427 371.821 141.577 363.261 140.556C358.234 140.006 354.229 141.185 349.281 141.734C344.962 142.206 341.192 144.641 337.03 145.505C337.03 141.499 336.637 141.342 340.328 139.928C342.449 139.142 344.491 138.2 346.69 137.493C348.802 136.861 350.793 135.879 352.58 134.586C354.857 132.936 353.444 133.486 356.192 134.036C360.512 134.9 359.255 133.879 362.083 131.758C363.732 130.501 365.381 131.287 367.345 131.522C369.151 131.758 372.135 132.544 373.47 130.894C374.491 129.637 373.392 127.516 374.177 126.181C375.355 124.06 378.89 124.138 380.774 122.724C382.816 121.153 382.973 119.425 382.581 116.99C382.267 115.34 379.675 111.648 379.832 110.234C379.824 109.891 379.952 109.559 380.187 109.309C380.422 109.059 380.746 108.912 381.089 108.899C386.193 109.134 385.958 108.349 384.701 103.871C384.623 104.578 384.623 105.128 384.544 105.6C384.503 105.019 384.556 104.435 384.701 103.871C384.858 103.557 385.33 103.4 385.722 103.164L385.33 103.557C385.565 104.5 385.644 107.014 386.508 107.721C387.136 108.192 389.492 108.192 389.963 107.328C390.906 105.6 387.607 104.657 387.45 103.4C391.298 103.086 389.963 101.201 388 99.2367C387.921 98.6868 388.235 98.4511 388.942 98.4511C388.636 98.1093 388.219 97.8867 387.764 97.8227C388.023 97.7825 388.267 97.674 388.471 97.5085C388.543 97.4068 388.587 97.2887 388.601 97.1651C388.615 97.0415 388.597 96.9164 388.55 96.8015C388.628 96.9763 388.681 97.1615 388.707 97.3514C392.005 98.6868 390.356 91.5384 388.942 90.36C389.021 88.3962 389.178 86.4323 389.256 84.3899C388.326 84.9873 387.653 85.9124 387.371 86.9822C387.371 86.0396 387.921 85.254 389.256 84.3899C387.136 83.4473 386.9 83.3687 389.178 83.1331C391.063 84.8613 390.827 83.4473 392.005 82.3475C391.927 82.4261 393.811 80.3837 393.654 80.6979C394.518 78.4984 393.576 73.9422 390.042 75.4348C392.005 77.163 390.042 77.4772 389.335 78.9697C389.335 79.0483 389.256 79.0483 389.256 79.1268C389.273 78.9599 389.326 78.7988 389.413 78.6555C390.591 76.0632 390.906 78.027 389.57 75.1205C389.859 75.2071 390.162 75.2309 390.46 75.1903C390.758 75.1496 391.044 75.0455 391.298 74.8849C392.398 73.5495 392.712 74.0993 393.262 72.4497C393.733 70.9572 393.497 69.936 392.555 69.3861C392.633 69.3861 392.79 69.4646 392.869 69.4646C393.061 68.9426 393.047 68.3667 392.827 67.8553C392.608 67.3439 392.202 66.9359 391.691 66.7153C391.298 67.4222 390.827 68.0507 390.434 68.7577C390.591 68.8362 390.827 68.8362 390.984 68.9148C389.649 68.7577 389.099 68.9933 388.942 69.6218C388.897 69.4931 388.88 69.356 388.894 69.2202C388.907 69.0845 388.951 68.9534 389.021 68.8362C389.178 68.6006 390.356 68.9933 390.434 68.7577C392.476 65.3798 390.356 62.6304 387.057 60.9022C385.801 60.2738 383.366 60.1953 382.895 58.7027C382.581 57.603 384.151 55.0107 384.466 53.7538C386.743 52.7326 382.502 52.1042 382.502 52.1042C382.345 53.5967 382.424 54.3037 383.288 54.1466C382.424 54.3037 382.345 53.5967 382.502 52.1042C383.759 52.2613 387.45 51.9471 389.178 50.6902C392.162 50.7688 393.654 51.3186 395.461 48.7264C393.733 48.0194 391.612 48.4121 390.042 47.2338C390.132 47.5404 390.185 47.857 390.199 48.1765C390.007 47.7433 389.71 47.3652 389.335 47.0767C389.57 47.3124 389.492 47.3909 389.178 47.3909C389.226 47.3535 389.265 47.3059 389.292 47.2516C389.319 47.1972 389.334 47.1375 389.335 47.0767C389.413 45.8199 390.356 46.3697 391.298 46.4483C391.275 46.0518 391.139 45.6702 390.906 45.3485C391.096 45.6912 391.228 46.0627 391.298 46.4483C391.927 46.0555 392.476 45.6627 393.105 45.3485C393.358 45.306 393.584 45.1647 393.733 44.9558V44.9558C396.56 45.8199 395.696 39.8497 394.361 39.8497C394.07 39.8558 393.791 39.9675 393.576 40.164C393.661 39.501 393.792 38.8448 393.969 38.2001V38.2001C394.126 37.8859 394.204 37.4931 394.361 37.1789C393.654 37.2575 391.377 35.8435 391.298 37.4931C391.249 37.198 391.112 36.9245 390.906 36.7076C391.141 34.9008 390.042 35.0579 388.392 34.5081C387.764 34.351 387.136 33.1726 386.429 33.644C385.408 34.3509 386.036 35.0579 386.665 35.6078C386.626 35.9012 386.53 36.184 386.381 36.4401C386.233 36.6962 386.036 36.9206 385.801 37.1003C385.722 37.0218 385.644 36.9432 385.565 36.9432C386.086 36.6519 386.479 36.1752 386.665 35.6078C384.544 33.9582 383.602 35.0579 382.031 36.3934C382.614 36.9224 383.365 37.2284 384.151 37.2575C384.151 37.336 384.073 37.4146 384.073 37.4931C383.276 37.4025 382.545 37.0087 382.031 36.3934C383.759 34.9794 383.602 34.0367 381.481 33.2512C380.774 32.937 380.303 33.644 379.439 33.2512C378.968 33.0941 378.654 32.3085 378.261 32.0729C375.041 30.1876 371.193 31.2873 367.816 30.816C368.209 30.7375 368.601 30.7375 368.915 30.6589C368.601 29.4806 367.659 29.0093 366.716 28.6165V26.5741C366.559 26.5741 366.481 26.4955 366.324 26.4955C366.463 26.4054 366.569 26.2722 366.626 26.1162C366.682 25.9603 366.687 25.79 366.638 25.6314C366.298 25.786 365.915 25.8155 365.556 25.7149C365.197 25.6143 364.884 25.39 364.674 25.0816C365.538 26.2599 367.345 25.6314 367.816 24.1389C368.366 22.5678 367.188 21.5466 366.167 20.4469C366.167 19.3471 365.695 18.9543 365.146 18.8758C366.245 16.7548 366.481 17.776 365.303 15.1052C365.224 13.2984 363.653 13.9269 362.632 15.1052C362.711 14.8695 362.868 14.5553 362.947 14.3196C362.161 14.2411 361.297 14.2411 360.512 14.1625C360.748 14.791 361.14 15.9693 360.591 16.5192C360.983 15.9693 360.669 14.7124 360.512 14.1625C359.491 13.6127 358.549 13.0628 357.528 12.5129C357.606 12.67 357.842 13.377 358.156 14.084C357.413 13.0842 356.599 12.1391 355.721 11.256C355.25 10.7062 353.208 8.19242 352.658 8.03531C349.281 7.09266 346.768 13.6127 342.606 12.7486C340.171 12.1987 341.349 11.5702 338.993 12.0416C337.736 10.3919 329.569 12.9842 329.254 14.5553C329.375 14.4918 329.511 14.4645 329.647 14.4768C328.705 14.791 327.919 15.3408 327.055 15.6551C324.778 16.5192 326.113 16.7548 323.6 15.2623C323.144 15.0057 322.63 14.8704 322.108 14.8695C323.207 14.3982 323.757 10.9418 323.757 9.7635C323.757 6.857 323.443 7.40688 324.542 5.28592C323.754 5.20214 322.957 5.25529 322.186 5.44303C322.341 4.98754 322.42 4.51002 322.422 4.02905C322.972 2.45797 322.5 0.651223 320.773 0.258452C318.102 -0.369981 317.631 3.40062 319.516 4.02905C317.71 3.40062 318.416 1.04399 315.903 0.729777C316.846 0.651223 317.395 0.886886 318.259 1.90809C318.574 1.35821 318.809 0.729777 319.123 0.179898C317.16 -0.0557641 316.217 -0.212872 314.647 0.729777C313.076 1.04399 311.976 2.14375 310.798 3.24351C307.578 6.30712 304.673 9.21362 301.688 12.5129C300.196 9.37073 298.468 7.09266 295.955 10.6276C293.648 14.0763 291.899 17.8672 290.772 21.8608C288.416 20.7611 289.437 20.4469 288.416 18.7187C289.437 20.3683 288.416 20.7611 290.772 21.8608C291.007 21.1539 291.243 20.3683 291.478 19.6613C289.437 17.3047 289.515 15.0266 287.316 12.5915C287.08 13.377 287.787 14.4768 287.866 15.2623C288.023 16.0478 287.159 16.5977 287.316 17.4618C288.101 17.1476 288.337 17.3047 288.337 17.6975C288.337 17.3833 288.101 17.2261 287.316 17.4618C287.002 16.0478 287.787 15.3408 287.316 13.7698C287.151 13.2031 286.885 12.671 286.531 12.1987C287.944 9.84206 283.389 8.19242 282.368 9.6064C282.237 9.74413 282.131 9.90361 282.054 10.0777C280.248 9.29218 279.698 10.9418 278.913 12.2772C278.734 12.6857 278.524 13.0797 278.284 13.4555C277.263 14.3196 276.242 16.1264 275.457 17.3047C273.808 19.8184 273.101 23.5105 270.98 25.5529C271.059 24.2175 271.766 21.2324 269.331 22.4107C270.117 22.0179 270.274 21.5466 270.038 20.9967L270.509 21.2324C270.823 21.2324 271.216 21.311 271.53 21.311C271.452 19.4257 270.274 18.1688 268.781 17.1476V18.5616C268.153 16.9905 268.389 16.5192 267.839 16.0478C268.095 16.1168 268.36 16.1433 268.624 16.1264C266.818 13.0628 264.383 12.5915 261.085 13.4555C261.32 13.5341 261.556 13.5341 261.792 13.6127C261.413 13.6152 261.039 13.6954 260.692 13.8483C259.436 14.4768 257.472 18.0902 256.608 19.3471C253.467 23.7461 251.975 29.1664 250.325 34.1938C249.854 35.6078 249.147 38.9856 247.341 39.457C245.299 40.0068 243.021 36.629 241.215 35.5293C235.325 31.9158 232.419 38.4358 231.555 43.5418C230.22 45.8199 230.534 47.6266 232.498 48.6478C231.992 47.9014 231.694 47.0338 231.634 46.1341C231.869 47.6266 233.126 48.0979 233.361 48.7264C233.548 49.6581 233.653 50.6043 233.676 51.5543C234.697 52.3398 234.775 52.8897 233.911 53.2039C233.361 53.5967 232.89 53.9895 232.419 54.3823C231.005 55.8748 231.005 57.9172 229.749 59.3312C228.335 60.9808 227 60.2738 226.293 62.9447C225.115 67.5008 228.021 74.4921 233.204 74.8849C232.576 76.6916 231.791 78.4984 231.32 80.3837C230.691 82.8189 230.77 83.1331 231.948 85.4897C223.309 84.2328 223.937 93.3451 228.885 97.9012C230.005 98.9306 231.349 99.6838 232.812 100.101C233.911 100.415 237.21 100.258 237.995 101.279C239.644 103.479 235.953 106.307 235.639 108.742C235.599 109.133 235.599 109.528 235.639 109.92C234.304 111.57 234.304 111.727 236.267 113.298C237.367 114.712 240.665 114.319 241.608 115.654C243.179 117.697 239.723 120.918 241.451 123.274C242.786 125.16 244.278 123.981 246.477 124.767C247.577 125.238 248.598 125.709 249.697 126.259C250.19 125.924 250.755 125.708 251.346 125.631C252.603 126.259 251.425 127.359 252.996 127.752C253.781 127.987 255.666 129.009 256.53 128.459C255.352 129.166 254.566 130.973 253.938 132.858C253.31 133.879 252.681 135.057 252.917 135.921C252.602 136.982 252.181 138.009 251.66 138.985C254.331 139.378 254.017 141.97 255.901 143.306C258.415 145.505 258.886 143.463 258.258 142.441C258.493 142.599 258.807 142.756 259.043 142.913C259.121 142.913 258.572 144.248 259.121 144.562C259.907 144.955 259.828 144.562 260.614 144.562C261.32 144.562 262.42 143.463 263.284 143.384C263.755 143.306 265.169 144.013 265.483 143.777C265.642 143.698 265.781 143.584 265.891 143.444C266 143.304 266.076 143.142 266.114 142.968C266.152 142.794 266.15 142.615 266.108 142.442C266.067 142.269 265.988 142.108 265.876 141.97L266.268 142.677C267.132 144.955 267.603 144.405 268.86 143.777C268.467 143.934 269.881 142.913 270.195 142.991C269.567 141.185 266.975 141.342 265.404 140.949C266.425 141.263 268.075 141.263 268.939 141.656C270.509 142.284 269.959 142.991 271.844 143.227C272.63 143.306 275.771 142.441 276.321 141.892C276.399 141.813 276.399 141.734 276.478 141.734C276.792 141.263 277.028 140.792 277.342 140.399C278.52 140.556 277.263 142.363 279.07 141.577C280.405 141.027 279.777 140.32 279.305 139.456C279.167 139.233 279.01 139.023 278.834 138.828C280.719 139.299 282.997 141.813 285.51 141.106C287.002 140.713 287.08 139.692 288.101 138.749C289.515 137.493 289.986 137.728 291.714 137.1C292.735 136.707 293.835 135.921 294.934 135.764C296.662 135.45 296.191 135.686 297.604 136.393C298.468 136.786 298.939 137.65 300.039 137.807C300.981 137.964 302.552 136.864 303.337 137.1C305.458 137.964 304.908 140.949 305.065 142.991C294.149 139.535 281.426 145.034 273.415 152.653C271.216 154.696 269.802 157.131 267.918 159.409C265.797 161.844 263.834 162.944 263.519 166.4C263.284 169.386 264.619 171.192 263.519 174.099C262.499 176.848 261.399 179.283 260.614 182.19C257.08 195.937 256.922 210.155 254.252 224.059C252.024 236.583 248.086 248.742 242.55 260.194C239.88 265.693 237.681 268.992 231.791 271.349C227.079 273.234 223.623 270.799 221.267 266.478C215.062 255.01 214.12 243.226 214.199 230.501C214.331 224.355 214.776 218.219 215.534 212.119C216.162 205.835 215.691 199.865 215.22 193.58C214.356 180.933 211.45 170.092 207.13 158.152C205.088 152.496 203.361 146.998 198.413 143.306C195.664 141.263 192.837 138.671 189.617 136.864C187.025 135.45 185.454 134.193 182.47 133.486C180.506 133.094 178.7 132.387 176.815 131.837C172.171 130.502 167.353 129.866 162.522 129.951C151.605 129.951 139.668 133.643 129.85 138.357C124.981 140.713 119.641 144.17 116.421 148.647C115.158 150.516 114.105 152.518 113.279 154.617C112.18 157.053 112.572 157.524 110.216 157.445C108.803 157.367 107.153 156.031 105.504 156.031C103.698 155.953 102.363 156.581 100.713 157.053C98.6023 157.486 96.5826 158.283 94.7447 159.409C90.1896 162.394 86.2627 167.107 82.8071 171.192C76.3671 178.733 70.634 187.139 64.5867 194.837C58.6964 202.378 51.5496 209.055 42.3609 212.512C38.8267 213.847 34.9784 214.083 31.4443 215.104C29.8736 215.575 27.9887 216.832 26.3394 216.754C23.7477 216.754 23.9833 215.418 23.0409 213.376C21.9678 211.037 20.416 208.95 18.4858 207.249C10.0038 199.158 -0.598578 211.098 0.0297134 220.367C0.422396 225.709 4.42775 229.322 4.27068 234.585C4.11361 239.534 4.42775 244.562 6.15556 249.197C8.11897 254.46 12.9882 259.88 17.3077 263.493C21.3131 266.793 26.2609 267.5 31.2872 268.05C33.5648 268.285 35.9209 268.992 38.1984 268.914C40.0833 268.914 41.8111 268.128 43.7745 268.207C47.073 268.364 48.8008 268.285 51.9423 267.185C54.1072 266.294 56.4347 265.866 58.775 265.929C58.775 271.192 59.0891 276.298 59.5603 281.561C59.6389 282.268 60.1101 284.075 59.7959 284.624C59.4033 285.41 58.932 284.86 58.4608 285.41C57.2828 286.745 56.4189 287.374 55.555 289.023C53.188 293.645 52.4149 298.92 53.356 304.027C54.0628 308.112 56.4974 309.762 55.9477 314.082C55.3194 319.188 54.0628 324.294 53.8272 329.4C53.8165 331.614 53.6062 333.823 53.1989 335.999C52.8847 337.334 51.8638 339.848 51.9423 341.183C52.0208 342.048 52.8847 342.44 52.8847 343.226C52.8847 343.933 52.0994 343.854 52.0208 344.404C51.8638 346.132 51.7852 347.782 51.7852 349.51C51.8638 351.945 51.6282 354.302 51.7067 356.737C51.7852 358.544 51.314 362.864 53.4345 362.157C52.9493 363.357 52.6833 364.634 52.6491 365.928C52.6491 365.771 52.5706 365.692 52.6491 365.535C52.6855 364.368 52.9524 363.22 53.4345 362.157L52.2565 362.55C51.5496 364.435 52.4135 366.242 52.6491 368.049V368.599C52.5314 371.246 52.6101 373.898 52.8847 376.533C53.356 382.66 53.5916 389.416 55.2408 394.914C57.0472 400.885 56.4974 408.426 57.2042 415.103C57.9896 422.644 59.3247 430.107 60.2672 437.648C61.1311 444.404 61.5237 451.709 63.0159 458.229C64.194 463.571 65.215 468.834 65.9218 474.49C66.7857 482.345 69.6915 488.237 72.833 495.385C74.1681 498.37 74.2467 498.37 71.812 500.57C70.791 501.512 69.9271 502.534 68.9062 503.476C66.9281 505.224 64.4605 506.321 61.8379 506.618C55.0838 507.404 48.3296 509.839 44.4813 515.652C40.7901 521.23 43.2248 527.828 45.895 533.563C42.2823 533.877 32.5438 533.641 34.8214 540.24C36.3921 544.717 44.717 543.225 48.4082 543.303C53.7486 543.382 59.1677 543.146 64.5081 543.068C66.9428 543.068 67.1784 542.753 69.5345 543.696C71.5596 544.471 73.7431 544.741 75.8959 544.482C78.4876 544.324 81.0008 544.717 83.514 544.324C86.6554 543.853 88.6188 543.46 91.7603 544.01C93.8704 544.338 96.0203 544.311 98.1217 543.932C100.635 543.617 102.991 543.775 105.583 543.696C111.63 543.539 117.677 543.617 123.725 543.696C129.615 543.775 135.505 542.989 141.395 543.225C151.605 543.696 161.972 543.303 172.26 543.539C176.972 543.617 180.664 546.367 185.376 546.131C190.166 545.817 195.114 545.817 199.905 545.11C208.151 543.932 216.083 542.282 224.487 541.889C229.749 541.654 234.461 543.932 239.409 545.346C241.215 545.896 242.864 545.66 244.514 545.974C246.084 546.367 247.734 547.388 249.383 547.781C253.083 548.71 256.878 549.211 260.692 549.273C261.163 550.137 261.635 550.216 262.263 549.588C262.499 549.43 262.734 549.352 262.97 549.195C264.069 549.038 264.855 548.566 266.033 548.488C267.839 548.409 269.645 548.645 271.373 548.488C274.919 548.08 278.497 548.027 282.054 548.331C284.332 548.566 286.374 548.252 288.651 548.252C288.651 548.252 291.793 548.881 291.793 548.802C292.107 548.724 292.499 547.938 292.657 547.859C292.578 547.152 292.814 546.76 293.363 546.838C293.756 546.76 294.07 546.995 294.149 547.467C293.992 547.467 295.091 548.017 295.17 548.017C295.248 548.017 298.076 547.702 298.233 547.624C299.018 547.31 299.411 546.445 300.039 546.288C300.824 546.131 301.296 546.995 301.924 546.917C303.416 546.838 303.18 546.21 304.358 545.974C308.285 545.267 313.155 546.21 317.238 546.21C321.322 546.21 325.328 545.817 329.254 545.66C334.045 545.424 338.757 546.367 343.627 545.738C348.26 545.11 352.894 544.874 357.528 544.639C367.266 544.246 377.24 544.639 386.822 543.539C396.874 542.361 407.006 543.539 417.058 543.382C427.661 543.225 438.263 543.068 448.865 542.675C459.389 542.282 469.913 541.025 480.359 540.711C483.029 540.632 485.621 540.004 488.291 539.847C490.725 539.69 493.082 540.083 495.595 539.847C500.071 539.454 504.155 539.768 508.632 539.69C513.658 539.611 518.527 538.826 523.554 538.511C528.58 538.197 533.606 538.904 538.633 537.883C541.224 537.804 546.329 534.034 542.795 530.892V530.892Z" fill="black"/>
<path fill-rule="evenodd" clip-rule="evenodd" d="M344.568 84.0757C344.548 84.0757 344.528 84.084 344.513 84.0987C344.498 84.1134 344.49 84.1334 344.49 84.1543L344.568 84.0757Z" fill="black"/>
<path fill-rule="evenodd" clip-rule="evenodd" d="M386.428 60.9808C387.057 58.7813 385.486 57.2102 384.386 55.482C383.68 59.3312 381.795 59.1741 386.428 60.9808Z" fill="black"/>
<path fill-rule="evenodd" clip-rule="evenodd" d="M269.88 143.777C269.88 143.855 269.88 143.855 269.958 143.934C269.958 143.855 269.958 143.777 269.88 143.777Z" fill="black"/>
<path fill-rule="evenodd" clip-rule="evenodd" d="M252.367 140.87C252.524 141.185 252.838 143.463 253.074 143.463C255.115 143.541 252.602 139.771 251.346 139.535C249.382 140.713 252.367 140.949 252.367 140.87Z" fill="black"/>
<path fill-rule="evenodd" clip-rule="evenodd" d="M252.209 127.752C252.052 126.024 251.502 125.788 249.853 126.652C250.402 127.752 250.952 127.595 252.209 127.752Z" fill="black"/>
<path fill-rule="evenodd" clip-rule="evenodd" d="M229.433 85.7253C230.219 85.8825 231.004 85.961 231.789 86.1181C231.318 85.0969 230.847 83.9972 230.376 82.976C230.14 83.84 229.747 84.7827 229.433 85.7253Z" fill="black"/>
<path fill-rule="evenodd" clip-rule="evenodd" d="M85.3189 216.597C86.9681 213.847 90.1096 210.391 93.7223 211.569C97.0993 212.669 98.0418 217.068 99.4554 219.817C102.283 225.159 103.147 219.425 103.775 216.125C103.304 209.605 100.712 198.922 92.1515 200.1C85.633 200.964 79.9784 211.491 81.235 217.696C82.2559 222.881 83.9837 218.875 85.3189 216.597" fill="black"/>
<path fill-rule="evenodd" clip-rule="evenodd" d="M333.338 93.4237C330.118 92.2454 330.118 95.7803 330.039 98.3726C329.961 100.808 330.275 106.385 333.338 107.249C336.322 108.113 336.636 103.164 337.108 101.122C336.322 98.6868 335.929 94.3663 333.338 93.4237" fill="black"/>
<path fill-rule="evenodd" clip-rule="evenodd" d="M337.028 88.1605C334.672 86.0396 333.101 85.4112 330.117 86.7466C328.546 87.4536 326.347 88.9461 326.112 90.8314C325.326 96.8015 334.986 89.4174 337.028 88.1605" fill="black"/>
<path fill-rule="evenodd" clip-rule="evenodd" d="M337.579 123.667C343.076 125.081 343.39 117.54 337.343 117.54C333.181 117.54 334.516 122.803 337.579 123.667Z" fill="black"/>
<path fill-rule="evenodd" clip-rule="evenodd" d="M295.562 100.258C293.52 100.572 292.813 101.829 293.206 103.871C293.677 106.228 295.012 106.228 297.29 106.464C302.866 106.542 299.253 99.708 295.562 100.258" fill="black"/>
<path fill-rule="evenodd" clip-rule="evenodd" d="M344.176 87.5321C344.647 88.9461 347.474 89.5745 348.888 89.0246C350.616 88.3962 350.93 86.8251 349.438 85.4111C348.103 84.1543 346.296 84.547 344.647 84.6256C344.647 85.1755 343.862 86.668 344.176 87.5321" fill="black"/>
<path fill-rule="evenodd" clip-rule="evenodd" d="M171.788 247.94C174.38 247.94 171.945 243.541 169.746 243.226C169.825 244.562 169.746 247.94 171.788 247.94Z" fill="black"/>
</svg>
