<svg width="1791" height="2007" viewBox="0 0 1791 2007" fill="none" xmlns="http://www.w3.org/2000/svg">
<g filter="url(#filter0_d)">
<path d="M189 1408C210 1408 228.667 1413.5 245 1424.5C261.667 1435.17 274.5 1450.33 283.5 1470C292.833 1489.67 297.5 1512.17 297.5 1537.5C297.5 1562.83 292.833 1585.17 283.5 1604.5C274.5 1623.5 261.833 1638.17 245.5 1648.5C229.167 1658.83 210.333 1664 189 1664C173.333 1664 158.833 1660.83 145.5 1654.5C132.5 1648.17 122.333 1639.67 115 1629V1714C115 1725.67 111 1735 103 1742C95 1749 84.5 1752.5 71.5 1752.5C57.8333 1752.5 46.8333 1748.67 38.5 1741C30.1667 1733.67 26 1724.17 26 1712.5V1450C26 1437.67 29.8333 1427.83 37.5 1420.5C45.5 1412.83 56.1667 1409 69.5 1409C82.1667 1409 92.3333 1412.33 100 1419C108 1425.67 112.5 1434.5 113.5 1445.5C120.5 1433.83 130.667 1424.67 144 1418C157.667 1411.33 172.667 1408 189 1408ZM162 1597.5C177.333 1597.5 189 1592.33 197 1582C205.333 1571.67 209.5 1556.83 209.5 1537.5C209.5 1517.17 205.333 1501.67 197 1491C188.667 1480 176.833 1474.5 161.5 1474.5C146.167 1474.5 134.333 1479.83 126 1490.5C117.667 1501.17 113.5 1516.5 113.5 1536.5C113.5 1556.17 117.667 1571.33 126 1582C134.333 1592.33 146.333 1597.5 162 1597.5ZM538.5 1581C546.167 1581 552.333 1584 557 1590C562 1596 564.5 1603.83 564.5 1613.5C564.5 1626.83 558 1637 545 1644C533.667 1649.67 520.167 1654.5 504.5 1658.5C489.167 1662.17 475 1664 462 1664C434.667 1664 410.833 1658.83 390.5 1648.5C370.167 1638.17 354.5 1623.33 343.5 1604C332.5 1584.67 327 1562 327 1536C327 1511.33 332.167 1489.33 342.5 1470C353.167 1450.33 367.833 1435.17 386.5 1424.5C405.5 1413.5 426.833 1408 450.5 1408C473.5 1408 493.667 1413 511 1423C528.333 1433 541.667 1447.17 551 1465.5C560.667 1483.83 565.5 1505.33 565.5 1530C565.5 1537.67 563.667 1543.67 560 1548C556.667 1552 551.667 1554 545 1554H413C415.333 1570 420.5 1581.5 428.5 1588.5C436.5 1595.5 448.333 1599 464 1599C472.333 1599 480 1598.17 487 1596.5C494 1594.5 501.833 1591.83 510.5 1588.5C515.5 1586.5 520.333 1584.83 525 1583.5C530 1581.83 534.5 1581 538.5 1581ZM453 1468C441.333 1468 432 1471.83 425 1479.5C418 1486.83 413.833 1497.67 412.5 1512H491C489 1482.67 476.333 1468 453 1468ZM745.719 1599.5C768.052 1600.83 779.219 1610.83 779.219 1629.5C779.219 1641.17 774.719 1649.83 765.719 1655.5C756.719 1661.17 743.885 1663.5 727.219 1662.5L713.219 1661.5C683.219 1659.17 660.385 1650.17 644.719 1634.5C629.385 1618.5 621.719 1596.33 621.719 1568V1479.5H607.219C580.552 1479.5 567.219 1468.5 567.219 1446.5C567.219 1424.83 580.552 1414 607.219 1414H621.719V1381.5C621.719 1368.83 625.719 1358.83 633.719 1351.5C641.719 1343.83 652.552 1340 666.219 1340C679.885 1340 690.719 1343.83 698.719 1351.5C706.719 1358.83 710.719 1368.83 710.719 1381.5V1414H738.219C764.885 1414 778.219 1424.83 778.219 1446.5C778.219 1468.5 764.885 1479.5 738.219 1479.5H710.719V1575.5C710.719 1581.83 712.552 1587.17 716.219 1591.5C720.219 1595.83 725.219 1598.17 731.219 1598.5L745.719 1599.5ZM847.355 1663C834.689 1663 824.022 1659.67 815.355 1653C807.022 1646 802.855 1635.67 802.855 1622V1346.5C802.855 1332.83 807.022 1322.5 815.355 1315.5C824.022 1308.5 834.689 1305 847.355 1305C860.022 1305 870.522 1308.5 878.855 1315.5C887.522 1322.5 891.855 1332.83 891.855 1346.5V1622C891.855 1635.67 887.522 1646 878.855 1653C870.522 1659.67 860.022 1663 847.355 1663ZM1067.48 1664C1040.48 1664 1016.65 1658.83 995.98 1648.5C975.647 1637.83 959.814 1622.83 948.48 1603.5C937.48 1584.17 931.98 1561.5 931.98 1535.5C931.98 1509.5 937.48 1487 948.48 1468C959.814 1448.67 975.647 1433.83 995.98 1423.5C1016.31 1413.17 1040.15 1408 1067.48 1408C1094.81 1408 1118.65 1413.17 1138.98 1423.5C1159.31 1433.83 1174.98 1448.67 1185.98 1468C1197.31 1487 1202.98 1509.5 1202.98 1535.5C1202.98 1561.5 1197.31 1584.17 1185.98 1603.5C1174.98 1622.83 1159.31 1637.83 1138.98 1648.5C1118.65 1658.83 1094.81 1664 1067.48 1664ZM1067.48 1597.5C1099.15 1597.5 1114.98 1576.83 1114.98 1535.5C1114.98 1494.17 1099.15 1473.5 1067.48 1473.5C1035.81 1473.5 1019.98 1494.17 1019.98 1535.5C1019.98 1576.83 1035.81 1597.5 1067.48 1597.5ZM1402.41 1434C1406.08 1425.67 1411.08 1419.5 1417.41 1415.5C1424.08 1411.5 1431.25 1409.5 1438.91 1409.5C1449.91 1409.5 1459.58 1413.17 1467.91 1420.5C1476.58 1427.83 1480.91 1436.67 1480.91 1447C1480.91 1452.67 1479.58 1458.17 1476.91 1463.5L1389.41 1637.5C1385.41 1645.83 1379.58 1652.33 1371.91 1657C1364.58 1661.33 1356.41 1663.5 1347.41 1663.5C1338.41 1663.5 1330.08 1661.33 1322.41 1657C1314.75 1652.33 1308.91 1645.83 1304.91 1637.5L1217.41 1463.5C1214.75 1457.5 1213.41 1452.17 1213.41 1447.5C1213.41 1436.83 1217.91 1427.83 1226.91 1420.5C1236.25 1412.83 1246.91 1409 1258.91 1409C1266.91 1409 1274.25 1411.17 1280.91 1415.5C1287.91 1419.5 1293.25 1425.67 1296.91 1434L1349.91 1548.5L1402.41 1434ZM1703.05 1581C1710.72 1581 1716.88 1584 1721.55 1590C1726.55 1596 1729.05 1603.83 1729.05 1613.5C1729.05 1626.83 1722.55 1637 1709.55 1644C1698.22 1649.67 1684.72 1654.5 1669.05 1658.5C1653.72 1662.17 1639.55 1664 1626.55 1664C1599.22 1664 1575.38 1658.83 1555.05 1648.5C1534.72 1638.17 1519.05 1623.33 1508.05 1604C1497.05 1584.67 1491.55 1562 1491.55 1536C1491.55 1511.33 1496.72 1489.33 1507.05 1470C1517.72 1450.33 1532.38 1435.17 1551.05 1424.5C1570.05 1413.5 1591.38 1408 1615.05 1408C1638.05 1408 1658.22 1413 1675.55 1423C1692.88 1433 1706.22 1447.17 1715.55 1465.5C1725.22 1483.83 1730.05 1505.33 1730.05 1530C1730.05 1537.67 1728.22 1543.67 1724.55 1548C1721.22 1552 1716.22 1554 1709.55 1554H1577.55C1579.88 1570 1585.05 1581.5 1593.05 1588.5C1601.05 1595.5 1612.88 1599 1628.55 1599C1636.88 1599 1644.55 1598.17 1651.55 1596.5C1658.55 1594.5 1666.38 1591.83 1675.05 1588.5C1680.05 1586.5 1684.88 1584.83 1689.55 1583.5C1694.55 1581.83 1699.05 1581 1703.05 1581ZM1617.55 1468C1605.88 1468 1596.55 1471.83 1589.55 1479.5C1582.55 1486.83 1578.38 1497.67 1577.05 1512H1655.55C1653.55 1482.67 1640.88 1468 1617.55 1468Z" fill="#4D6F80"/>
<path d="M363.412 19.8439L1419.78 17.5942L1419.77 839.21L891.593 1154.46L363.412 841.46L363.412 19.8439Z" fill="#0292C9"/>
<path d="M1243.7 945.489L1257.8 896.047C1287.22 798.006 1296.22 694.978 1284.26 593.321C1270.46 476.015 1229.11 363.635 1163.6 265.357C1126.02 208.998 1078.52 159.937 1023.4 120.567C988.09 95.3437 947.829 77.9012 905.277 69.392C883.482 65.0342 860.927 66.4384 839.841 73.4658L793.381 88.9543C781.245 92.9995 770.137 99.641 760.829 108.416C751.522 117.192 744.238 127.89 739.487 139.767L715.523 199.677L598.665 258.104C593.703 260.585 589.325 264.093 585.822 268.396C582.319 272.698 579.771 277.696 578.348 283.058C576.924 288.42 576.657 294.023 577.564 299.496C578.471 304.97 580.532 310.187 583.609 314.803L637.274 395.3L752.806 384.785V945.293L1243.7 945.489Z" fill="#FBB540"/>
<path d="M1106.77 268.683C1106.77 289.436 1098.53 309.339 1083.85 324.013C1069.18 338.688 1049.28 346.932 1028.52 346.932C1007.77 346.932 987.867 338.688 973.192 324.013C958.517 309.339 950.273 289.436 950.273 268.683V227.798C950.27 196.598 941.793 165.986 925.747 139.229L905.818 106.022C897.384 91.9708 887.437 78.8841 876.157 66.9957C877.526 66.9468 878.871 66.9224 880.24 66.9224C888.648 66.9166 897.036 67.7439 905.28 69.3921C947.836 77.8984 988.101 95.3429 1023.41 120.572C1031.68 126.489 1039.78 132.619 1047.72 138.96C1066.26 155.104 1081.13 175.037 1091.32 197.415C1101.51 219.793 1106.78 244.095 1106.77 268.683V268.683Z" fill="#FBB540"/>
<path d="M616.978 324.044L598.15 336.613L583.6 314.801C580.525 310.183 578.467 304.965 577.562 299.491C576.657 294.018 576.925 288.414 578.349 283.052C579.774 277.691 582.321 272.693 585.823 268.39C589.325 264.087 593.702 260.578 598.663 258.095L637.152 238.85L637.274 238.802L641.7 252.055C646.043 265.105 645.975 279.221 641.508 292.228C637.041 305.236 628.422 316.415 616.978 324.044V324.044Z" fill="#FBB540"/>
<path d="M1168 525.778L1048.08 645.697L928.164 525.778C922.769 520.383 918.49 513.979 915.57 506.93C912.65 499.881 911.148 492.327 911.148 484.697C911.148 469.289 917.269 454.511 928.164 443.616C939.06 432.721 953.837 426.6 969.245 426.6C976.875 426.6 984.429 428.102 991.478 431.022C998.527 433.942 1004.93 438.221 1010.33 443.616L1048.08 481.374L1085.84 443.616C1091.24 438.221 1097.64 433.942 1104.69 431.022C1111.74 428.102 1119.29 426.6 1126.92 426.6C1142.33 426.6 1157.11 432.721 1168 443.616C1178.9 454.511 1185.02 469.289 1185.02 484.697C1185.02 492.327 1183.52 499.881 1180.6 506.93C1177.68 513.979 1173.4 520.383 1168 525.778Z" fill="#E82F3E"/>
<path d="M805.999 238.801C820.854 238.801 832.897 226.758 832.897 211.903C832.897 197.048 820.854 185.005 805.999 185.005C791.143 185.005 779.101 197.048 779.101 211.903C779.101 226.758 791.143 238.801 805.999 238.801Z" fill="#D18D28"/>
<path d="M752.806 384.797L839.819 376.886C843.684 376.535 847.395 375.202 850.601 373.014C853.806 370.826 856.399 367.855 858.134 364.384C859.562 361.53 861.709 359.097 864.363 357.325C867.017 355.553 870.087 354.503 873.27 354.278C876.453 354.052 879.64 354.66 882.517 356.04C885.394 357.421 887.862 359.527 889.678 362.151C891.7 365.075 892.83 368.522 892.932 372.074C893.034 375.627 892.103 379.134 890.253 382.168C885.861 389.372 879.883 395.479 872.774 400.023C865.665 404.568 857.613 407.431 849.231 408.394L754.647 419.263L752.806 384.797Z" fill="#D18D28"/>
<path d="M1106.77 268.683C1106.77 289.436 1098.52 309.339 1083.85 324.013C1069.18 338.688 1049.27 346.932 1028.52 346.932C1007.77 346.932 987.863 338.688 973.189 324.013C958.514 309.339 950.27 289.436 950.27 268.683V227.798C950.267 196.598 941.79 165.986 925.744 139.229L905.815 106.022C897.381 91.9708 887.434 78.8841 876.154 66.9957C877.523 66.9468 878.868 66.9224 880.237 66.9224C888.645 66.9166 897.032 67.7439 905.277 69.3921C947.833 77.8984 988.098 95.3429 1023.41 120.572L1034.68 128.641C1039.21 131.869 1043.55 135.309 1047.71 138.96C1066.26 155.104 1081.13 175.037 1091.32 197.415C1101.5 219.793 1106.77 244.095 1106.77 268.683V268.683Z" fill="#D18D28"/>
<path d="M616.978 324.044L598.15 336.613L583.6 314.801C580.525 310.183 578.467 304.965 577.562 299.491C576.657 294.018 576.925 288.414 578.349 283.052C579.774 277.691 582.321 272.693 585.823 268.39C589.325 264.087 593.702 260.578 598.663 258.095L637.152 238.85L637.274 238.802L641.7 252.055C646.043 265.105 645.975 279.221 641.508 292.228C637.041 305.236 628.422 316.415 616.978 324.044V324.044Z" fill="#D18D28"/>
<path d="M930.711 766.983L935.98 768.489C973.913 779.327 1007.28 802.226 1031.04 833.722C1054.8 865.217 1067.65 903.593 1067.65 943.043V945.489H578.59L566.757 904.589C545.935 836.919 540.055 765.535 549.522 695.37C558.989 625.204 583.578 557.931 621.59 498.2L637.277 473.549L641.803 464.501C652.198 443.708 668.179 426.22 687.953 413.998C707.728 401.775 730.515 395.301 753.763 395.3H754.65V473.549L822.817 507.633C838.138 515.294 851.507 526.352 861.904 539.965C872.302 553.577 879.453 569.384 882.812 586.181L891.586 630.047L893.569 632.03C903.781 642.243 909.869 655.862 910.668 670.282C911.466 684.703 906.919 698.911 897.897 710.189L891.586 718.077L930.711 766.983Z" fill="#FBFDFF"/>
<path d="M799.926 786.545C782.995 786.591 766.224 783.279 750.582 776.8C734.94 770.321 720.738 760.804 708.8 748.799L701.691 741.691C698.022 738.022 695.961 733.046 695.961 727.858C695.961 722.67 698.022 717.694 701.691 714.025C705.36 710.356 710.336 708.295 715.524 708.295C720.713 708.295 725.688 710.356 729.357 714.025L736.466 721.133C745.39 730.059 756.097 737.001 767.887 741.507C779.677 746.013 792.285 747.981 804.887 747.283C817.489 746.586 829.803 743.237 841.023 737.457C852.243 731.677 862.118 723.595 870.003 713.739L876.309 705.85C879.552 701.799 884.271 699.202 889.429 698.63C894.586 698.058 899.76 699.559 903.811 702.801C907.862 706.044 910.46 710.763 911.032 715.921C911.603 721.078 910.103 726.252 906.86 730.303L900.552 738.187C888.509 753.312 873.203 765.517 855.778 773.892C838.352 782.266 819.259 786.591 799.926 786.545V786.545Z" fill="#CBCBCB"/>
<path d="M793.778 637.383C808.633 637.383 820.676 625.34 820.676 610.485C820.676 595.629 808.633 583.586 793.778 583.586C778.923 583.586 766.88 595.629 766.88 610.485C766.88 625.34 778.923 637.383 793.778 637.383Z" fill="#CBCBCB"/>
<path d="M1126.93 407.037C1116.72 407.009 1106.62 409.004 1097.19 412.907C1087.77 416.811 1079.21 422.545 1072.01 429.778L1048.09 453.71L1024.16 429.786C1016.95 422.574 1008.39 416.853 998.969 412.95C989.547 409.047 979.448 407.038 969.249 407.038C959.051 407.037 948.952 409.046 939.53 412.948C930.107 416.851 921.546 422.571 914.334 429.782C907.123 436.993 901.402 445.554 897.499 454.976C893.596 464.398 891.587 474.497 891.586 484.696C891.586 494.894 893.594 504.993 897.497 514.415C901.399 523.838 907.119 532.399 914.331 539.611L1034.25 659.532C1036.07 661.349 1038.22 662.79 1040.6 663.773C1042.97 664.756 1045.51 665.262 1048.08 665.262C1050.65 665.262 1053.2 664.756 1055.57 663.773C1057.94 662.79 1060.1 661.349 1061.92 659.532L1181.84 539.611C1192.71 528.75 1200.1 514.911 1203.1 499.846C1206.1 484.782 1204.56 469.166 1198.68 454.976C1192.8 440.785 1182.85 428.656 1170.07 420.123C1157.3 411.59 1142.29 407.036 1126.93 407.037V407.037ZM1154.18 511.94L1048.09 618.033L941.999 511.94C934.936 504.68 931.015 494.932 931.085 484.803C931.154 474.675 935.209 464.981 942.371 457.819C949.533 450.657 959.227 446.603 969.356 446.533C979.484 446.464 989.233 450.386 996.492 457.449L1034.25 495.207C1036.07 497.023 1038.22 498.464 1040.6 499.448C1042.97 500.431 1045.51 500.937 1048.08 500.937C1050.65 500.937 1053.2 500.431 1055.57 499.448C1057.94 498.464 1060.1 497.023 1061.92 495.207L1099.68 457.447C1106.94 450.363 1116.69 446.424 1126.83 446.484C1136.97 446.545 1146.68 450.6 1153.85 457.77C1161.02 464.941 1165.08 474.648 1165.14 484.789C1165.2 494.929 1161.26 504.684 1154.18 511.94V511.94Z" fill="black"/>
<path d="M898.065 721.365L924.457 765.35C924.457 765.35 968.443 765.35 1021.23 826.93C1074.01 888.51 1065.21 941.293 1065.21 941.293H581.369C581.369 941.293 519.789 818.133 554.977 659.785C570.354 590.588 616.557 489.645 634.151 475.045C651.746 460.445 695.731 395.871 757.311 395.871C766.108 395.871 757.311 475.045 757.311 475.045C757.311 475.045 814.493 488.241 854.08 536.625C893.667 585.009 889.268 624.596 889.268 624.596C889.268 624.596 905.145 649.687 906.863 668.582C908.58 687.477 898.065 721.365 898.065 721.365ZM898.065 721.365C898.065 721.365 871.674 765.35 801.297 765.35C730.92 765.35 704.529 712.568 704.529 712.568" stroke="black" stroke-width="25"/>
<path d="M1012.43 941.293H1241.15C1381.91 475.045 1109.2 79.1741 871.673 70.377C871.673 70.377 797.027 79.7993 766.107 105.565C735.188 131.332 713.325 202.334 713.325 202.334L634.15 237.522C634.15 237.522 590.165 250.718 581.368 272.711C572.57 294.704 598.962 334.291 598.962 334.291L634.15 395.871H766.107" stroke="black" stroke-width="25"/>
<path d="M357.588 860.265L885.768 1173.29C888.796 1175.08 892.253 1176.01 895.773 1176C899.293 1175.99 902.746 1175.06 905.769 1173.25L1433.95 857.997C1436.86 856.262 1439.26 853.794 1440.94 850.849C1442.61 847.905 1443.49 844.579 1443.49 841.193L1443.49 19.5874C1443.49 14.3992 1441.43 9.40746 1437.76 5.73883C1434.09 2.07019 1429.11 6.95507e-05 1423.93 6.90971e-05L1423.88 6.90934e-05L367.521 2.26799C362.34 2.279 357.375 4.3393 353.715 8.00674C350.055 11.6742 348 16.6399 348 21.821L348 843.427C348.001 846.823 348.885 850.166 350.566 853.117C352.247 856.068 354.667 858.532 357.588 860.265ZM740.442 41.374L1194.29 41.3741C963.795 41.3741 937.403 41.374 740.442 41.374ZM558.295 40.996L701.045 40.6867C629.504 40.6867 550.329 41.3741 558.295 40.996ZM387.124 41.3396L517.426 41.0647C535.981 40.6867 885.768 39.5528 1234.67 39.5528L1404.36 39.1748L1404.36 830.094L895.707 1133.66L387.124 832.293L387.124 41.3396Z" fill="black"/>
<path d="M793.778 637.383C808.633 637.383 820.676 625.34 820.676 610.485C820.676 595.629 808.633 583.586 793.778 583.586C778.923 583.586 766.88 595.629 766.88 610.485C766.88 625.34 778.923 637.383 793.778 637.383Z" fill="black"/>
<path d="M806.003 238.801C820.859 238.801 832.901 226.758 832.901 211.903C832.901 197.048 820.859 185.005 806.003 185.005C791.148 185.005 779.105 197.048 779.105 211.903C779.105 226.758 791.148 238.801 806.003 238.801Z" fill="black"/>
</g>
<defs>
<filter id="filter0_d" x="22" y="0" width="1712.05" height="1760.5" filterUnits="userSpaceOnUse" color-interpolation-filters="sRGB">
<feFlood flood-opacity="0" result="BackgroundImageFix"/>
<feColorMatrix in="SourceAlpha" type="matrix" values="0 0 0 0 0 0 0 0 0 0 0 0 0 0 0 0 0 0 127 0"/>
<feOffset dy="4"/>
<feGaussianBlur stdDeviation="2"/>
<feColorMatrix type="matrix" values="0 0 0 0 0 0 0 0 0 0 0 0 0 0 0 0 0 0 0.25 0"/>
<feBlend mode="normal" in2="BackgroundImageFix" result="effect1_dropShadow"/>
<feBlend mode="normal" in="SourceGraphic" in2="effect1_dropShadow" result="shape"/>
</filter>
</defs>
</svg>
