<svg width="63" height="67" viewBox="0 0 63 67" fill="none" xmlns="http://www.w3.org/2000/svg">
<path d="M1.11212 1.12787L61.1523 1.00001L61.1523 47.6979L31.1322 65.6155L1.11212 47.8258L1.11212 1.12787Z" fill="#0292C9"/>
<path d="M51.145 53.7385L51.9464 50.9284C53.618 45.3561 54.1298 39.5002 53.4501 33.7224C52.6658 27.0551 50.3158 20.6678 46.5919 15.082C44.4564 11.8788 41.7565 9.09031 38.6237 6.85263C36.6167 5.41903 34.3284 4.42766 31.9099 3.94402C30.6711 3.69634 29.3892 3.77615 28.1907 4.17557L25.5501 5.05588C24.8603 5.28579 24.229 5.66327 23.7 6.16204C23.171 6.66081 22.757 7.26888 22.4869 7.94392L21.1249 11.349L14.4831 14.6698C14.2011 14.8108 13.9522 15.0102 13.7531 15.2547C13.554 15.4992 13.4092 15.7833 13.3283 16.0881C13.2474 16.3928 13.2322 16.7113 13.2838 17.0224C13.3353 17.3335 13.4525 17.63 13.6274 17.8924L16.6775 22.4675L23.244 21.8699V53.7273L51.145 53.7385Z" fill="#FBB540"/>
<path d="M43.3622 15.271C43.3622 16.4506 42.8936 17.5818 42.0596 18.4158C41.2255 19.2499 40.0943 19.7185 38.9148 19.7185C37.7353 19.7185 36.604 19.2499 35.77 18.4158C34.9359 17.5818 34.4674 16.4506 34.4674 15.271V12.9473C34.4672 11.174 33.9854 9.4341 33.0734 7.91334L31.9407 6.02597C31.4613 5.22732 30.896 4.48351 30.2548 3.80782C30.3327 3.80504 30.4091 3.80365 30.4869 3.80365C30.9648 3.80332 31.4415 3.85034 31.9101 3.94402C34.3288 4.42749 36.6174 5.41898 38.6243 6.85291C39.0941 7.18925 39.5546 7.53763 40.0058 7.89806C41.0599 8.81558 41.9049 9.9485 42.4839 11.2204C43.0629 12.4923 43.3624 13.8736 43.3622 15.271V15.271Z" fill="#FBB540"/>
<path d="M15.5239 18.4176L14.4538 19.132L13.6268 17.8923C13.4521 17.6298 13.3351 17.3332 13.2837 17.0221C13.2322 16.711 13.2475 16.3925 13.3284 16.0878C13.4094 15.783 13.5542 15.499 13.7532 15.2544C13.9523 15.0099 14.201 14.8104 14.483 14.6693L16.6705 13.5755L16.6775 13.5727L16.9291 14.326C17.1759 15.0677 17.172 15.87 16.9181 16.6093C16.6643 17.3486 16.1744 17.984 15.5239 18.4176V18.4176Z" fill="#FBB540"/>
<path d="M46.8424 29.8835L40.0266 36.6993L33.2108 29.8835C32.9041 29.5769 32.6609 29.2129 32.4949 28.8122C32.329 28.4116 32.2436 27.9822 32.2436 27.5486C32.2436 26.6728 32.5915 25.8329 33.2107 25.2137C33.83 24.5944 34.6699 24.2465 35.5456 24.2465C35.9793 24.2465 36.4087 24.3319 36.8093 24.4979C37.2099 24.6638 37.5739 24.9071 37.8805 25.2137L40.0266 27.3597L42.1726 25.2137C42.4792 24.9071 42.8432 24.6638 43.2438 24.4979C43.6445 24.3319 44.0738 24.2465 44.5075 24.2465C45.3832 24.2465 46.2231 24.5944 46.8424 25.2137C47.4617 25.8329 47.8095 26.6728 47.8095 27.5486C47.8096 27.9822 47.7241 28.4116 47.5582 28.8122C47.3922 29.2129 47.149 29.5769 46.8424 29.8835Z" fill="#E82F3E"/>
<path d="M26.2673 13.5727C27.1116 13.5727 27.7961 12.8882 27.7961 12.0439C27.7961 11.1996 27.1116 10.5151 26.2673 10.5151C25.4229 10.5151 24.7384 11.1996 24.7384 12.0439C24.7384 12.8882 25.4229 13.5727 26.2673 13.5727Z" fill="#D18D28"/>
<path d="M23.244 21.8706L28.1895 21.421C28.4092 21.401 28.6201 21.3253 28.8023 21.2009C28.9845 21.0765 29.1319 20.9077 29.2305 20.7104C29.3117 20.5482 29.4337 20.4099 29.5845 20.3092C29.7354 20.2085 29.9098 20.1488 30.0908 20.136C30.2717 20.1232 30.4528 20.1577 30.6163 20.2362C30.7799 20.3146 30.9201 20.4343 31.0233 20.5835C31.1382 20.7496 31.2025 20.9456 31.2083 21.1475C31.2141 21.3494 31.1612 21.5487 31.056 21.7212C30.8064 22.1306 30.4666 22.4777 30.0625 22.736C29.6585 22.9943 29.2009 23.157 28.7244 23.2118L23.3486 23.8296L23.244 21.8706Z" fill="#D18D28"/>
<path d="M43.362 15.271C43.362 16.4506 42.8935 17.5818 42.0594 18.4158C41.2253 19.2499 40.0941 19.7185 38.9146 19.7185C37.7351 19.7185 36.6039 19.2499 35.7698 18.4158C34.9357 17.5818 34.4672 16.4506 34.4672 15.271V12.9473C34.467 11.174 33.9852 9.4341 33.0732 7.91334L31.9405 6.02597C31.4611 5.22732 30.8958 4.48351 30.2546 3.80782C30.3325 3.80504 30.4089 3.80365 30.4867 3.80365C30.9646 3.80332 31.4413 3.85034 31.9099 3.94402C34.3286 4.42749 36.6172 5.41898 38.6241 6.85291L39.2648 7.31155C39.522 7.49501 39.7689 7.69051 40.0056 7.89806C41.0597 8.81558 41.9047 9.9485 42.4838 11.2204C43.0628 12.4923 43.3622 13.8736 43.362 15.271V15.271Z" fill="#D18D28"/>
<path d="M15.5239 18.4176L14.4538 19.132L13.6268 17.8923C13.4521 17.6298 13.3351 17.3332 13.2836 17.0221C13.2322 16.711 13.2474 16.3925 13.3284 16.0878C13.4093 15.783 13.5541 15.499 13.7532 15.2544C13.9522 15.0099 14.201 14.8104 14.483 14.6693L16.6705 13.5755L16.6775 13.5727L16.929 14.326C17.1759 15.0677 17.172 15.87 16.9181 16.6093C16.6642 17.3486 16.1744 17.984 15.5239 18.4176V18.4176Z" fill="#D18D28"/>
<path d="M33.3555 43.5928L33.655 43.6784C35.8109 44.2944 37.7075 45.5959 39.0578 47.386C40.408 49.1761 41.1384 51.3573 41.1385 53.5995V53.7385H13.3421L12.6695 51.4139C11.4861 47.5677 11.1519 43.5105 11.69 39.5225C12.2281 35.5346 13.6256 31.711 15.7861 28.3161L16.6776 26.915L16.9349 26.4007C17.5257 25.2189 18.434 24.225 19.5579 23.5303C20.6819 22.8356 21.977 22.4676 23.2983 22.4676H23.3488V26.915L27.2232 28.8522C28.094 29.2876 28.8538 29.9161 29.4447 30.6898C30.0357 31.4635 30.4421 32.362 30.6331 33.3166L31.1318 35.8098L31.2445 35.9225C31.8249 36.503 32.1709 37.2771 32.2163 38.0967C32.2617 38.9163 32.0033 39.7238 31.4905 40.3648L31.1318 40.8132L33.3555 43.5928Z" fill="#FBFDFF"/>
<path d="M25.9221 44.7046C24.9598 44.7073 24.0066 44.519 23.1175 44.1508C22.2285 43.7826 21.4214 43.2416 20.7428 42.5593L20.3388 42.1553C20.1303 41.9468 20.0131 41.664 20.0131 41.3691C20.0131 41.0742 20.1303 40.7914 20.3388 40.5829C20.5473 40.3743 20.8301 40.2572 21.125 40.2572C21.4199 40.2572 21.7027 40.3743 21.9112 40.5829L22.3152 40.9869C22.8225 41.4942 23.431 41.8887 24.1011 42.1448C24.7712 42.4009 25.4878 42.5128 26.2041 42.4732C26.9203 42.4335 27.6202 42.2432 28.2579 41.9147C28.8956 41.5861 29.4569 41.1268 29.905 40.5666L30.2635 40.1182C30.4478 39.888 30.716 39.7404 31.0091 39.7079C31.3023 39.6754 31.5963 39.7606 31.8266 39.9449C32.0569 40.1292 32.2045 40.3975 32.237 40.6906C32.2695 40.9837 32.1842 41.2778 31.9999 41.5081L31.6413 41.9561C30.9569 42.8158 30.0869 43.5095 29.0965 43.9855C28.1061 44.4614 27.0209 44.7073 25.9221 44.7046V44.7046Z" fill="#CBCBCB"/>
<path d="M25.5727 36.2268C26.417 36.2268 27.1015 35.5423 27.1015 34.698C27.1015 33.8536 26.417 33.1692 25.5727 33.1692C24.7283 33.1692 24.0439 33.8536 24.0439 34.698C24.0439 35.5423 24.7283 36.2268 25.5727 36.2268Z" fill="#CBCBCB"/>
<path d="M44.5077 23.1347C43.9279 23.133 43.3535 23.2464 42.8177 23.4683C42.282 23.6902 41.7956 24.0161 41.3867 24.4272L40.0268 25.7874L38.667 24.4276C38.2571 24.0177 37.7705 23.6926 37.235 23.4707C36.6995 23.2489 36.1255 23.1347 35.5459 23.1347C34.9662 23.1347 34.3922 23.2488 33.8567 23.4706C33.3212 23.6924 32.8346 24.0175 32.4247 24.4274C32.0148 24.8373 31.6897 25.3238 31.4678 25.8594C31.246 26.3949 31.1318 26.9689 31.1318 27.5485C31.1317 28.1282 31.2459 28.7021 31.4677 29.2377C31.6895 29.7732 32.0146 30.2598 32.4245 30.6697L39.2403 37.4857C39.3435 37.5889 39.4661 37.6708 39.601 37.7267C39.7359 37.7826 39.8805 37.8113 40.0265 37.8113C40.1725 37.8113 40.3171 37.7826 40.452 37.7267C40.5869 37.6708 40.7095 37.5889 40.8127 37.4857L47.6291 30.6697C48.2464 30.0524 48.6668 29.2659 48.8371 28.4096C49.0074 27.5534 48.92 26.6659 48.5859 25.8593C48.2518 25.0528 47.686 24.3634 46.9601 23.8784C46.2341 23.3934 45.3807 23.1346 44.5077 23.1347V23.1347ZM46.0565 29.097L40.0268 35.127L33.9971 29.097C33.5956 28.6844 33.3728 28.1303 33.3767 27.5546C33.3807 26.9789 33.6111 26.428 34.0182 26.0209C34.4253 25.6139 34.9763 25.3834 35.5519 25.3795C36.1276 25.3756 36.6817 25.5984 37.0943 25.9999L39.2403 28.1459C39.3435 28.2492 39.4661 28.3311 39.601 28.387C39.7359 28.4428 39.8805 28.4716 40.0265 28.4716C40.1725 28.4716 40.3171 28.4428 40.452 28.387C40.5869 28.3311 40.7095 28.2492 40.8127 28.1459L42.9593 25.9998C43.3717 25.5971 43.9262 25.3733 44.5025 25.3767C45.0788 25.3802 45.6306 25.6106 46.0381 26.0182C46.4457 26.4257 46.6761 26.9775 46.6796 27.5538C46.683 28.1301 46.4592 28.6846 46.0565 29.097V29.097Z" fill="black"/>
<path d="M31.5 41L33 43.5C33 43.5 35.5 43.5 38.5 47C41.5 50.5 41 53.5 41 53.5H13.5C13.5 53.5 10 46.5 12 37.5C12.874 33.5671 15.5 27.8298 16.5 27C17.5 26.1702 20 22.5 23.5 22.5C24 22.5 23.5 27 23.5 27C23.5 27 26.75 27.75 29 30.5C31.25 33.25 31 35.5 31 35.5C31 35.5 31.9024 36.9261 32 38C32.0976 39.0739 31.5 41 31.5 41ZM31.5 41C31.5 41 30 43.5 26 43.5C22 43.5 20.5 40.5 20.5 40.5" stroke="black" stroke-width="2"/>
<path d="M38 53.5H51C59 27 43.5 4.5 30 4C30 4 25.7573 4.53553 24 6C22.2426 7.46447 21 11.5 21 11.5L16.5 13.5C16.5 13.5 14 14.25 13.5 15.5C13 16.75 14.5 19 14.5 19L16.5 22.5H24" stroke="black" stroke-width="2"/>
<path d="M0.781057 48.8946L30.8011 66.6857C30.9732 66.7876 31.1697 66.8403 31.3697 66.84C31.5698 66.8396 31.7661 66.7863 31.9379 66.6837L61.958 48.7657C62.1232 48.6671 62.26 48.5268 62.355 48.3595C62.45 48.1921 62.5 48.0031 62.5 47.8106L62.5 1.1133C62.5 0.818414 62.3829 0.5347 62.1743 0.326187C61.9658 0.117674 61.6831 1.51874e-05 61.3882 1.51616e-05L61.3858 1.51614e-05L1.34564 0.128916C1.05116 0.129542 0.768963 0.246642 0.560961 0.455088C0.352958 0.663533 0.236131 0.945771 0.236132 1.24024L0.236128 47.9376C0.236172 48.1306 0.286457 48.3207 0.382002 48.4884C0.477546 48.6561 0.615042 48.7962 0.781057 48.8946ZM22.5413 2.35157L48.3364 2.35158C35.2359 2.35158 33.7359 2.35157 22.5413 2.35157ZM12.1886 2.33009L20.302 2.31251C16.2359 2.31251 11.7359 2.35158 12.1886 2.33009ZM2.45984 2.34962L9.86577 2.334C10.9204 2.31251 30.8011 2.24806 50.6314 2.24806L60.2763 2.22658L60.2763 47.1798L31.366 64.4337L2.45983 47.3048L2.45984 2.34962Z" fill="black"/>
<path d="M25.5727 36.2268C26.417 36.2268 27.1015 35.5423 27.1015 34.698C27.1015 33.8536 26.417 33.1692 25.5727 33.1692C24.7283 33.1692 24.0439 33.8536 24.0439 34.698C24.0439 35.5423 24.7283 36.2268 25.5727 36.2268Z" fill="black"/>
<path d="M26.2675 13.5727C27.1118 13.5727 27.7963 12.8882 27.7963 12.0439C27.7963 11.1996 27.1118 10.5151 26.2675 10.5151C25.4232 10.5151 24.7387 11.1996 24.7387 12.0439C24.7387 12.8882 25.4232 13.5727 26.2675 13.5727Z" fill="black"/>
</svg>
